<svg width="43" height="27" viewBox="0 0 43 27" fill="none" xmlns="http://www.w3.org/2000/svg">
<path d="M0 1.30017C0 0.700171 0.600049 0.100098 1.30005 0.100098H41.6C42.3 0.100098 42.8 0.700171 42.8 1.30017V25.4C42.8 26.1 42.3 26.6002 41.6 26.6002H1.30005C0.600049 26.6002 0 26.1 0 25.4V1.30017Z" fill="#2E77BC"/>
<path fill-rule="evenodd" clip-rule="evenodd" d="M15.5001 12.6001H14.4001L14.2002 12.1001V12.6001H12.1001L11.9001 12.0001H11.4001L11.1001 12.6001H10.1001V10.7001L10.8002 9.00012H12.4001L12.6001 9.40015V9.00012H14.5001L14.9001 9.90015L15.3002 9.00012H21.3002C21.6335 9.00012 21.8668 9.06674 22.0001 9.20007V9.00012H23.6001V9.20007C23.8668 9.06674 24.2001 9.00012 24.6001 9.00012H27.0001L27.2002 9.40015V9.00012H29.0001L29.2002 9.40015V9.00012H30.9001V12.6001H29.2002L28.9001 12.0001V12.6001H26.7002L26.5001 12.0001H26.0001L25.7002 12.6001H24.6001C24.1001 12.6001 23.8001 12.4002 23.6001 12.3002V12.6001H21.0001V11.7001C21.0001 11.6001 20.9001 11.6001 20.9001 11.6001H20.8002V12.6001H15.6001V12.1001L15.5001 12.6001ZM25.6001 11.5001H26.9001L27.1001 12.0001L28.4001 12.1001V10.1001L29.5001 12.0001H30.4001V9.50012H29.8002V11.3002L28.7002 9.50012H27.7002V11.9001L26.7002 9.50012H25.8002L24.9001 11.5001H24.6001C24.5001 11.5001 24.3002 11.5001 24.2002 11.4001C24.0669 11.2668 24.0001 11.0668 24.0001 10.8002C24.0001 10.5335 24.0669 10.3334 24.2002 10.2001C24.3002 10.1001 24.5002 10.0001 24.7002 10.0001H25.3002V9.50012H24.7002C24.2335 9.50012 23.9002 9.60017 23.7002 9.80017C23.5002 10.0002 23.4001 10.3002 23.4001 10.8002C23.4001 11.2002 23.5002 11.5002 23.7002 11.8002C24.0002 12.0002 24.4001 12.0001 24.6001 12.0001H25.4001L25.6001 11.5001ZM19.7002 9.50012V12.1001H20.3002V11.1001H20.9001C21.1001 11.1001 21.2668 11.1334 21.4001 11.2001C21.5001 11.3001 21.5001 11.5001 21.5001 11.7001V12.1001L22.1001 12.0001V11.5001C22.1001 11.3001 22.1001 11.2001 22.0001 11.1001C21.9001 11.0001 21.8002 10.9001 21.7002 10.9001C21.7002 10.9001 22.1001 10.7001 22.1001 10.2001C22.1001 9.93341 22.0002 9.73343 21.8002 9.6001C21.6002 9.5001 21.4001 9.50012 21.1001 9.50012H19.7002ZM11.0001 11.5001H12.3002L12.5001 12.1001H13.8002V10.0001L14.7002 12.1001H15.2002L16.1001 10.0001V12.1001L16.7002 12.0001V9.50012H15.7002L15.0001 11.2001L14.2002 9.50012H13.2002V11.9001L12.1001 9.50012H11.2002L10.1001 12.1001H10.8002L11.0001 11.5001ZM22.5001 9.50012V12.1001H23.1001V9.50012H22.5001ZM17.2002 9.50012V12.1001H19.3002V11.5001H17.8002V11.0001H19.2002V10.5001H17.8002V10.0001H19.3002V9.50012H17.2002ZM26.6001 10.9001H25.8002L26.2002 9.90015L26.6001 10.9001ZM12.0001 10.9001H11.2002L11.6001 9.90015L12.0001 10.9001ZM21.0001 10.6001H20.3002V10.0001H21.0001C21.1001 10.0001 21.2002 10.0001 21.3002 10.1001C21.3668 10.1001 21.4001 10.1668 21.4001 10.3002C21.4001 10.4335 21.3668 10.5001 21.3002 10.5001C21.2335 10.5668 21.1335 10.6001 21.0001 10.6001Z" fill="white"/>
<path fill-rule="evenodd" clip-rule="evenodd" d="M20.5001 16.9H18.5001L18.0001 16.4L17.5001 16.9H14.2002V13.3002H17.6001L18.0001 13.9001L18.5001 13.3002H20.8002C21.1002 13.3002 21.5001 13.4001 21.6001 13.5001V13.3002H23.6001C23.7001 13.3002 24.2001 13.3001 24.4001 13.5001V13.3002H27.5001V13.5001C27.6001 13.4001 28.0002 13.3002 28.2002 13.3002H29.9001V13.5001C30.1001 13.3668 30.3334 13.3002 30.6001 13.3002H31.8002V13.8002H30.6001C29.9001 13.8002 29.7002 14.2001 29.7002 14.6001C29.7002 15.4001 30.3002 15.4 30.8002 15.4C30.8668 15.4 30.9001 15.4 30.9001 15.4C30.9668 15.4 31.0001 15.4 31.0001 15.4C31.0668 15.4 31.1335 15.4335 31.2002 15.5001C31.2669 15.5001 31.3002 15.5336 31.3002 15.6002C31.3002 15.6669 31.2669 15.7335 31.2002 15.8002C31.1335 15.8668 31.0335 15.9 30.9001 15.9H29.8002V16.4H30.9001C31.3668 16.4 31.6668 16.3002 31.8002 16.1002V16.8002C31.5335 16.8668 31.2335 16.9 30.9001 16.9H29.3002V16.7001C29.1002 16.8001 28.8001 16.9 28.4001 16.9H23.4001V16.1002C23.4001 16.0002 23.4002 16.0001 23.3002 16.0001H23.2002V16.9H21.6001V16.0001C21.3001 16.1001 21.0002 16.1002 20.8002 16.1002H20.5001V16.9ZM27.3002 15.8002V16.4H28.5001C29.1668 16.4 29.5001 16.1336 29.5001 15.6002C29.5001 15.3336 29.4335 15.1335 29.3002 15.0001C29.1668 14.8668 28.9334 14.8002 28.6001 14.8002H28.3002C28.1668 14.8002 28.1001 14.8002 28.1001 14.8002C27.9668 14.7335 27.9001 14.6668 27.9001 14.6001C27.9001 14.5334 27.9335 14.4668 28.0001 14.4001C28.0668 14.3335 28.1668 14.3002 28.3002 14.3002H29.4001V13.8002H28.2002C27.5002 13.8002 27.3002 14.2001 27.3002 14.6001C27.3002 15.3001 27.9001 15.3 28.4001 15.4C28.4668 15.4 28.5001 15.4 28.5001 15.4C28.5001 15.4 28.5334 15.4 28.6001 15.4C28.6668 15.4 28.7335 15.4 28.8002 15.4C28.8668 15.4667 28.9001 15.5336 28.9001 15.6002C28.9001 15.6669 28.8668 15.7335 28.8002 15.8002C28.7335 15.8002 28.6335 15.8002 28.5001 15.8002H27.3002ZM24.9001 13.8002V16.4H27.0001V15.8002H25.5001V15.3002H26.9001V14.8002H25.5001V14.3002H27.0001V13.8002H24.9001ZM22.7002 15.4H23.4001C23.6001 15.4 23.7335 15.4335 23.8002 15.5001C23.9002 15.7001 23.9001 15.9001 23.9001 16.0001V16.4H24.5001V15.9C24.5001 15.6 24.5001 15.5 24.4001 15.4C24.4001 15.3 24.3001 15.2001 24.1001 15.2001C24.3001 15.1001 24.6001 14.9001 24.6001 14.5001C24.6001 14.2335 24.5002 14.0335 24.3002 13.9001C24.0002 13.8001 23.8001 13.8002 23.5001 13.8002H22.1001V16.4H22.7002V15.4ZM18.0001 15.5001L18.8002 16.4H20.0001V15.5001H20.7002C21.4335 15.5001 21.8002 15.2001 21.8002 14.6001C21.8002 14.0668 21.4668 13.8002 20.8002 13.8002H18.8002L18.0001 14.6001L17.3002 13.8002H14.8002V16.4H17.2002L18.0001 15.5001ZM19.4001 16.1002L18.4001 15.1002L19.4001 14.1001V16.1002ZM16.9001 15.8002H15.4001V15.3002H16.8002V14.7001H15.4001V14.3002H17.0001L17.6001 15.0001L16.9001 15.8002ZM31.8002 15.0001C31.7335 15.0001 31.7002 15.0001 31.7002 15.0001C31.5669 14.8668 31.3335 14.7667 31.0001 14.7001H30.7002C30.5669 14.7001 30.4668 14.7001 30.4001 14.7001C30.3335 14.7001 30.3002 14.6335 30.3002 14.5001C30.3002 14.4335 30.3335 14.3668 30.4001 14.3002C30.4668 14.3002 30.5669 14.3002 30.7002 14.3002H31.8002V15.0001ZM20.8002 14.9001H20.0001V14.2001H20.8002C21.0002 14.2001 21.1335 14.3001 21.2002 14.5001C21.1335 14.7668 21.0002 14.9001 20.8002 14.9001ZM23.5001 14.8002H22.7002V14.2001H23.5001C23.6335 14.2001 23.7335 14.2335 23.8002 14.3002C23.8668 14.3002 23.9001 14.3668 23.9001 14.5001C23.9001 14.6335 23.8668 14.7335 23.8002 14.8002C23.6668 14.8002 23.5668 14.8002 23.5001 14.8002Z" fill="white"/>
</svg>
