<svg width="43" height="27" viewBox="0 0 43 27" fill="none" xmlns="http://www.w3.org/2000/svg">
<path d="M0 1.30017C0 0.700171 0.600049 0.100098 1.30005 0.100098H41.6C42.3 0.100098 42.8 0.700171 42.8 1.30017V25.7001C42.8 26.3001 42.3 26.9 41.6 26.9H1.30005C0.600049 26.9 0 26.3001 0 25.7001V1.30017Z" fill="#184977"/>
<path fill-rule="evenodd" clip-rule="evenodd" d="M31.5001 14.1001C31.4001 14.1001 31.4001 14.1001 31.4001 14.0001C31.4001 13.9001 31.4001 13.8002 31.5001 13.8002C31.6001 13.8002 31.7002 13.9001 31.7002 14.0001C31.7002 14.1001 31.6001 14.1001 31.5001 14.1001ZM31.5001 13.8002C31.5001 13.8002 31.4001 13.9001 31.4001 14.0001L31.5001 14.1001C31.6001 14.1001 31.7002 14.0001 31.7002 14.0001C31.7002 13.9001 31.6001 13.8002 31.5001 13.8002Z" fill="white"/>
<path d="M31.0001 14.9001C31.0001 14.9668 31.0334 15.0001 31.1001 15.0001C31.1668 15.0001 31.2335 15.0001 31.3002 15.0001C31.3668 15.0001 31.4335 14.9668 31.5001 14.9001C31.5001 14.8335 31.5001 14.8002 31.5001 14.8002H31.6001C31.5334 14.8668 31.5001 14.9669 31.5001 15.1002C31.3668 15.1002 31.2334 15.1002 31.1001 15.1002C30.9001 15.1002 30.7334 15.1002 30.6001 15.1002V15.0001C30.7001 15.0001 30.8002 15.0001 30.8002 14.9001V14.0001C30.8002 13.9001 30.7001 13.9001 30.6001 13.9001V13.8002C30.7334 13.8002 30.8335 13.8002 30.9001 13.8002C30.9668 13.8002 31.0334 13.8002 31.1001 13.8002V13.9001C31.0001 13.9001 31.0001 13.9001 31.0001 14.0001V14.9001Z" fill="white"/>
<path fill-rule="evenodd" clip-rule="evenodd" d="M29.8002 15.1002C29.7335 15.1002 29.6668 15.1002 29.6001 15.1002C29.5334 15.1002 29.4668 15.1002 29.4001 15.1002V15.0001C29.4668 15.0001 29.5001 14.9668 29.5001 14.9001L29.8002 14.1001C29.8668 14.0334 29.9001 13.9668 29.9001 13.9001C29.9668 13.8335 30.0001 13.8002 30.0001 13.8002C30.0668 13.8002 30.1001 13.8002 30.1001 13.8002L30.4001 14.8002C30.4001 14.8668 30.4001 14.9001 30.4001 14.9001C30.4668 14.9668 30.5334 15.0001 30.6001 15.0001V15.1002C30.5334 15.1002 30.4335 15.1002 30.3002 15.1002C30.2335 15.1002 30.1668 15.1002 30.1001 15.1002V15.0001H30.2002C30.2002 14.9335 30.2002 14.8668 30.2002 14.8002L30.1001 14.6001H29.7002V14.8002C29.7002 14.8002 29.7002 14.8335 29.7002 14.9001C29.6335 14.9001 29.6001 14.9001 29.6001 14.9001C29.6001 14.9668 29.6668 15.0001 29.8002 15.0001V15.1002ZM29.9001 14.0001L29.8002 14.5001H30.1001L29.9001 14.0001Z" fill="white"/>
<path d="M29.1 14.7001V14.1001C29.1 13.9001 29 13.9001 29 13.9001V13.8002C29.0667 13.8002 29.1334 13.8002 29.2001 13.8002C29.2667 13.8002 29.3334 13.8002 29.4 13.8002V13.9001C29.3 13.9001 29.2001 13.9001 29.2001 14.1001V14.9001C29.2001 14.9668 29.2001 15.0336 29.2001 15.1002L28.3 14.1001V14.8002C28.3 15.0002 28.3 15.0001 28.5 15.0001V15.1002C28.4333 15.1002 28.3667 15.1002 28.3 15.1002C28.2334 15.1002 28.1333 15.1002 28 15.1002V15.0001H28.1C28.1666 15.0001 28.2001 14.9335 28.2001 14.8002V14.0001C28.2001 13.9001 28.1 13.9001 28.1 13.9001H28V13.8002C28.0667 13.8002 28.1334 13.8002 28.2001 13.8002C28.2667 13.8002 28.3334 13.8002 28.4 13.8002L29.1 14.7001Z" fill="white"/>
<path fill-rule="evenodd" clip-rule="evenodd" d="M27.4001 15.1002C27.0001 15.1002 26.7002 14.8001 26.7002 14.5001C26.7002 14.1001 27.0001 13.8002 27.4001 13.8002C27.7001 13.8002 28.0001 14.1001 28.0001 14.4001C28.0001 14.8001 27.7001 15.1002 27.4001 15.1002ZM27.4001 13.9001C27.0001 13.9001 27.0001 14.3001 27.0001 14.4001C27.0001 14.7001 27.1001 15.0001 27.4001 15.0001C27.6668 15.0001 27.8002 14.8335 27.8002 14.5001C27.8002 14.2001 27.6001 13.9001 27.4001 13.9001Z" fill="white"/>
<path d="M26.2002 15.0001C26.3002 15.0001 26.3002 15.0001 26.3002 14.9001V14.0001C26.3002 13.9001 26.3002 13.9001 26.2002 13.9001V13.8002C26.2669 13.8002 26.3335 13.8002 26.4001 13.8002C26.5335 13.8002 26.6335 13.8002 26.7002 13.8002V13.9001C26.6002 13.9001 26.5001 13.9001 26.5001 14.0001V14.9001C26.5001 15.0001 26.6002 15.0001 26.7002 15.0001V15.1002C26.6335 15.1002 26.5335 15.1002 26.4001 15.1002C26.3335 15.1002 26.2669 15.1002 26.2002 15.1002V15.0001Z" fill="white"/>
<path d="M25.2001 13.9001C25.0001 13.9001 25 14.0001 25 14.1001C25 14.0334 25 13.9668 25 13.9001C25 13.9001 25 13.8668 25 13.8002C25 13.8002 25.0333 13.8002 25.1 13.8002H26C26.0667 13.8002 26.1 13.8002 26.1 13.8002C26.1 13.8668 26.1 13.9001 26.1 13.9001C26.1 13.9668 26.1 14.0334 26.1 14.1001H26C26 14.0001 26 13.9001 25.9 13.9001H25.6V14.9001C25.6 15.0001 25.7 15.0001 25.8 15.0001V15.1002C25.8 15.1002 25.6 15.1002 25.5 15.1002C25.4 15.1002 25.3 15.1002 25.3 15.1002V15.0001C25.4 15.0001 25.4 15.0001 25.4 14.9001V13.9001H25.2001Z" fill="white"/>
<path fill-rule="evenodd" clip-rule="evenodd" d="M24.3002 15.1002C24.2335 15.1002 24.1668 15.1002 24.1001 15.1002C24.0334 15.1002 23.9668 15.1002 23.9001 15.1002V15.0001C23.9668 15.0001 24.0334 14.9668 24.1001 14.9001L24.3002 14.1001C24.3668 14.0334 24.4001 13.9668 24.4001 13.9001C24.4668 13.8335 24.5334 13.8002 24.6001 13.8002L24.9001 14.8002C24.9001 14.8668 24.9335 14.9001 25.0001 14.9001C25.0001 14.9668 25.0334 15.0001 25.1001 15.0001V15.1002C25.0334 15.1002 24.9668 15.1002 24.9001 15.1002C24.7668 15.1002 24.6668 15.1002 24.6001 15.1002V15.0001C24.7001 15.0001 24.7002 15.0001 24.7002 15.0001C24.7002 14.9335 24.7002 14.8668 24.7002 14.8002L24.6001 14.6001H24.2002V14.8002C24.2002 14.8002 24.2002 14.8335 24.2002 14.9001C24.2002 14.9668 24.2335 15.0001 24.3002 15.0001V15.1002ZM24.4001 14.0001L24.3002 14.5001H24.6001L24.4001 14.0001Z" fill="white"/>
<path d="M23.7002 14.7001V14.1001C23.7002 13.9001 23.6001 13.9001 23.5001 13.9001V13.8002C23.5668 13.8002 23.6335 13.8002 23.7002 13.8002C23.7669 13.8002 23.8335 13.8002 23.9001 13.8002V13.9001C23.8001 13.9001 23.7002 13.9001 23.7002 14.1001V14.9001C23.7002 14.9668 23.7335 15.0336 23.8002 15.1002H23.7002L22.8002 14.1001V14.8002C22.8002 15.0002 22.9001 15.0001 23.0001 15.0001V15.1002C22.9335 15.1002 22.8668 15.1002 22.8002 15.1002C22.7335 15.1002 22.6668 15.1002 22.6001 15.1002V15.0001C22.7334 15.0001 22.7669 14.9335 22.7002 14.8002V14.0001C22.7002 13.9001 22.7001 13.9001 22.6001 13.9001V13.8002C22.6668 13.8002 22.7335 13.8002 22.8002 13.8002C22.8002 13.8002 22.8335 13.8002 22.9001 13.8002L23.7002 14.7001Z" fill="white"/>
<path fill-rule="evenodd" clip-rule="evenodd" d="M21.9001 15.1002C21.8335 15.1002 21.8002 15.1002 21.8002 15.1002C21.7335 15.1002 21.6668 15.1002 21.6001 15.1002C21.6001 15.1002 21.5668 15.1002 21.5001 15.1002C21.4335 15.1002 21.4001 15.1002 21.4001 15.1002V15.0001C21.5001 15.0001 21.5001 15.0001 21.5001 14.9001V14.0001C21.5001 13.9001 21.5001 13.9001 21.4001 13.9001V13.8002H21.5001C21.5001 13.8002 21.5334 13.8002 21.6001 13.8002C21.6668 13.8002 21.7335 13.8002 21.8002 13.8002C21.8002 13.8002 21.8335 13.8002 21.9001 13.8002C22.1668 13.8002 22.3002 13.9001 22.3002 14.1001C22.3002 14.3001 22.2334 14.4335 22.1001 14.5001L22.4001 14.9001C22.4001 15.0001 22.4001 15.0001 22.5001 15.0001V15.1002C22.5001 15.1002 22.4668 15.1002 22.4001 15.1002C22.3335 15.1002 22.3002 15.1002 22.3002 15.1002C22.2335 15.1002 22.2002 15.1002 22.2002 15.1002C22.1002 14.9002 21.9002 14.7001 21.8002 14.5001H21.7002V14.9001C21.7002 15.0001 21.8001 15.0001 21.9001 15.0001V15.1002ZM21.8002 13.9001C21.7335 13.9001 21.7002 13.9001 21.7002 13.9001V14.4001H21.8002C22.0002 14.4001 22.1001 14.3334 22.1001 14.2001C22.1001 14.0001 22.0002 13.9001 21.8002 13.9001Z" fill="white"/>
<path d="M20.3003 15.0001H20.4003C20.4003 15.0001 20.5002 15.0001 20.5002 14.9001V14.0001C20.5002 13.9001 20.4003 13.9001 20.4003 13.9001H20.3003V13.8002C20.4003 13.8002 20.6003 13.8002 20.8003 13.8002C20.9003 13.8002 21.1003 13.8002 21.2003 13.8002C21.2003 13.9002 21.2003 14.0001 21.2003 14.1001H21.1002C21.1002 14.0001 21.1003 13.9001 20.9003 13.9001H20.7003V14.4001H20.9003C21.0003 14.4001 21.0002 14.3001 21.0002 14.2001H21.1002C21.1002 14.2667 21.1002 14.3335 21.1002 14.4001C21.1002 14.4668 21.1002 14.5334 21.1002 14.6001H21.0002C21.0002 14.5001 21.0003 14.5001 20.9003 14.5001H20.7003V14.9001C20.7003 15.0001 20.8003 15.0001 20.9003 15.0001C21.1003 15.0001 21.2003 15.0002 21.2003 14.8002H21.3003C21.3003 14.8668 21.267 14.9669 21.2003 15.1002C21.1003 15.1002 20.9003 15.1002 20.8003 15.1002C20.6003 15.1002 20.4003 15.1002 20.3003 15.1002V15.0001Z" fill="white"/>
<path d="M19.3002 13.9001C19.2002 13.9001 19.2002 14.0001 19.2002 14.1001H19.1001C19.1001 14.0334 19.1001 13.9668 19.1001 13.9001C19.1001 13.9001 19.1001 13.8668 19.1001 13.8002H19.2002C19.2002 13.8002 19.2335 13.8002 19.3002 13.8002H20.2002H20.3002C20.3002 13.8668 20.3002 13.9001 20.3002 13.9001C20.3002 13.9668 20.3002 14.0334 20.3002 14.1001H20.2002C20.2002 14.0001 20.2001 13.9001 20.1001 13.9001H19.8002V14.9001C19.8002 15.0001 19.9001 15.0001 20.0001 15.0001V15.1002C19.9001 15.1002 19.8002 15.1002 19.7002 15.1002C19.6002 15.1002 19.5001 15.1002 19.4001 15.1002V15.0001H19.5001C19.6001 15.0001 19.6001 15.0001 19.6001 14.9001V13.9001H19.3002Z" fill="white"/>
<path d="M18.8002 14.7001V14.1001C18.8002 13.9001 18.7002 13.9001 18.7002 13.9001H18.6001V13.8002C18.6668 13.8002 18.7668 13.8002 18.9001 13.8002C18.9668 13.8002 19.0334 13.8002 19.1001 13.8002V13.9001H19.0001C19.0001 13.9001 18.9001 13.9001 18.9001 14.1001V14.9001C18.9001 14.9668 18.9001 15.0336 18.9001 15.1002H18.8002L18.0001 14.1001V14.8002C18.0001 15.0002 18.0001 15.0001 18.1001 15.0001H18.2002V15.1002C18.1335 15.1002 18.0335 15.1002 17.9001 15.1002C17.8335 15.1002 17.7669 15.1002 17.7002 15.1002V15.0001C17.8335 15.0001 17.9001 14.9335 17.9001 14.8002V14.0001C17.9001 13.9001 17.8002 13.9001 17.7002 13.9001V13.8002C17.7669 13.8002 17.8335 13.8002 17.9001 13.8002C17.9668 13.8002 18.0334 13.8002 18.1001 13.8002L18.8002 14.7001Z" fill="white"/>
<path d="M17.1001 15.0001H17.2002C17.2002 15.0001 17.3002 15.0001 17.3002 14.9001V14.0001C17.3002 13.9001 17.2002 13.9001 17.2002 13.9001H17.1001V13.8002C17.2334 13.8002 17.3335 13.8002 17.4001 13.8002C17.4668 13.8002 17.5669 13.8002 17.7002 13.8002V13.9001H17.6001C17.6001 13.9001 17.5001 13.9001 17.5001 14.0001V14.9001C17.5001 15.0001 17.6001 15.0001 17.6001 15.0001H17.7002V15.1002C17.5669 15.1002 17.4668 15.1002 17.4001 15.1002C17.3335 15.1002 17.2334 15.1002 17.1001 15.1002V15.0001Z" fill="white"/>
<path fill-rule="evenodd" clip-rule="evenodd" d="M30.7001 13.2001C30.6001 13.2001 30.4 13.1001 30.4 13.1001C30.3334 13.1001 30.3 13.1001 30.3 13.1001H30.2001C30.2001 12.9001 30.2001 12.7001 30.2001 12.5001V11.1001C30.2001 10.9001 30.2 10.9001 30.1 10.9001H30V10.8002C30.2 10.8002 30.3 10.7001 30.4 10.7001C30.4667 10.7001 30.5 10.7001 30.5 10.7001V11.9001C30.6333 11.7668 30.7667 11.7001 30.9 11.7001C31.3 11.7001 31.5 12.0002 31.5 12.3002C31.5 12.7002 31.2001 13.2001 30.7001 13.2001ZM30.7001 11.8002C30.6001 11.8002 30.5 11.9001 30.5 12.0001V12.8002C30.5 12.9002 30.6 13.1001 30.8 13.1001C31.1 13.1001 31.2001 12.8001 31.2001 12.5001C31.2001 12.1001 31.0001 11.8002 30.7001 11.8002Z" fill="white"/>
<path d="M29.8 13.0001C29.8 13.0001 29.8334 13.0001 29.9 13.0001C29.9667 13.0001 30.0333 13.0001 30.1 13.0001V13.1001C29.9 13.1001 29.7 13.2001 29.6 13.2001V12.9001C29.4 13.1001 29.3 13.2001 29 13.2001C28.9 13.2001 28.7001 13.1002 28.7001 12.8002V12.0001C28.7001 11.9001 28.7 11.8002 28.5 11.8002V11.7001C28.6 11.7001 28.9 11.7001 28.9 11.7001C28.9667 11.7001 29 11.7335 29 11.8002V12.6001C29 12.7001 29.0001 13.0001 29.2001 13.0001C29.3001 13.0001 29.5 12.9002 29.6 12.8002V11.9001C29.6 11.9001 29.4 11.8002 29.3 11.8002V11.7001C29.6334 11.7001 29.8 11.7001 29.8 11.7001C29.8 11.7001 29.8 11.7335 29.8 11.8002V13.0001Z" fill="white"/>
<path d="M27.9001 13.0001C28.0001 13.0001 28.1001 13.0001 28.1001 12.9001V11.1001C28.1001 10.9001 28.0001 10.9001 27.9001 10.9001V10.8002C28.0001 10.8002 28.2002 10.7001 28.2002 10.7001C28.2669 10.7001 28.3002 10.7001 28.3002 10.7001V12.9001C28.3002 13.0001 28.4001 13.0001 28.5001 13.0001V13.1001C28.4335 13.1001 28.3335 13.1001 28.2002 13.1001C28.0669 13.1001 27.9668 13.1001 27.9001 13.1001V13.0001Z" fill="white"/>
<path d="M27.7003 11.5001C27.6003 11.1001 27.4002 10.9001 27.0002 10.9001C26.7002 10.9001 26.1002 11.2001 26.1002 12.0001C26.1002 12.6001 26.6002 13.1001 27.1002 13.1001C27.4002 13.1001 27.6003 12.9001 27.7003 12.5001H27.8003L27.7003 13.0001C27.6003 13.1001 27.2002 13.2001 27.0002 13.2001C26.3002 13.2001 25.8003 12.7001 25.8003 12.0001C25.8003 11.3001 26.4002 10.8002 27.0002 10.8002C27.2002 10.8002 27.5003 10.9001 27.7003 11.0001V11.5001Z" fill="white"/>
<path d="M24.1 12.7001C24.1 12.9001 24.2 13.1001 24.5 13.1001C24.6 13.1001 24.7001 13.0002 24.7001 12.8002C24.7001 12.5002 24 12.6001 24 12.1001C24 11.9001 24.2 11.7001 24.5 11.7001C24.6333 11.7001 24.7667 11.7001 24.9 11.7001V12.1001H24.8C24.8 11.9001 24.7 11.8002 24.5 11.8002C24.4 11.8002 24.2001 11.8001 24.2001 12.0001C24.2001 12.3001 25 12.2001 25 12.7001C25 13.0001 24.8 13.2001 24.4 13.2001C24.3 13.2001 24.2 13.1001 24.1 13.1001L24 12.7001H24.1Z" fill="white"/>
<path d="M22.9001 13.0001H23.0001C23.1001 13.0001 23.1001 13.0001 23.1001 12.9001V12.0001C23.1001 11.9001 23.0001 11.9001 23.0001 11.9001V11.8002C23.2001 11.7002 23.3002 11.7001 23.3002 11.7001C23.3668 11.7001 23.4001 11.7001 23.4001 11.7001V12.0001C23.4001 11.9001 23.6002 11.7001 23.8002 11.7001C23.8002 11.7001 23.9001 11.7002 23.9001 11.8002C23.9001 11.9002 23.9002 12.0001 23.8002 12.0001C23.7002 12.0001 23.7001 11.9001 23.6001 11.9001C23.5001 11.9001 23.4001 12.0001 23.4001 12.2001V12.9001C23.4001 13.0001 23.4001 13.0001 23.5001 13.0001H23.7002V13.1001C23.5002 13.1001 23.3668 13.1001 23.3002 13.1001C23.1668 13.1001 23.0335 13.1001 22.9001 13.1001V13.0001Z" fill="white"/>
<path fill-rule="evenodd" clip-rule="evenodd" d="M22.3002 13.2001C21.8002 13.2001 21.7002 12.7001 21.7002 12.5001C21.7002 11.8001 22.1002 11.7001 22.3002 11.7001C22.6002 11.7001 22.8002 11.8001 22.8002 12.2001H21.9001C21.9001 12.2667 21.9001 12.3335 21.9001 12.4001C21.9001 12.7001 22.1001 13.0001 22.4001 13.0001C22.6001 13.0001 22.7002 12.9002 22.8002 12.8002C22.7002 13.0002 22.5002 13.2001 22.3002 13.2001ZM22.3002 11.8002C22.1002 11.8002 21.9668 11.9001 21.9001 12.1001H22.5001H22.6001C22.6001 11.9001 22.4002 11.8002 22.3002 11.8002Z" fill="white"/>
<path d="M20.3002 12.1001C20.3002 12.0001 20.3002 11.9001 20.2002 11.9001V11.8002C20.3335 11.7335 20.4668 11.7001 20.6001 11.7001V11.9001C20.8001 11.8001 20.9001 11.7001 21.1001 11.7001C21.4001 11.7001 21.5001 11.9001 21.5001 12.1001V12.9001C21.5001 13.0001 21.5001 13.0001 21.6001 13.0001H21.7002V13.1001C21.5669 13.1001 21.4668 13.1001 21.4001 13.1001C21.2668 13.1001 21.1335 13.1001 21.0001 13.1001V13.0001H21.1001C21.2001 13.0001 21.2002 13.0001 21.2002 12.9001V12.1001C21.2002 11.9001 21.1001 11.8002 20.9001 11.8002C20.8001 11.8002 20.7001 11.9001 20.6001 12.0001V12.9001C20.6001 13.0001 20.7002 13.0001 20.7002 13.0001H20.8002V13.1001C20.6668 13.1001 20.5668 13.1001 20.5001 13.1001C20.3668 13.1001 20.2334 13.1001 20.1001 13.1001V13.0001H20.2002C20.3002 13.0001 20.3002 13.0001 20.3002 12.9001V12.1001Z" fill="white"/>
<path d="M20.0001 13.1001C20.0001 13.1001 19.9668 13.1001 19.9001 13.1001C19.8335 13.1001 19.7669 13.1001 19.7002 13.1001C19.5669 13.1001 19.4668 13.1001 19.4001 13.1001V13.0001C19.5001 13.0001 19.6001 13.0001 19.6001 12.9001V12.1001C19.6001 11.9001 19.6001 11.9002 19.4001 11.8002C19.6001 11.7002 19.8002 11.7001 19.8002 11.7001V12.9001C19.8002 13.0001 19.9001 13.0001 20.0001 13.0001V13.1001ZM19.7002 11.2001C19.6002 11.2001 19.6001 11.1001 19.6001 11.0001C19.6001 10.9001 19.6002 10.8002 19.7002 10.8002C19.8002 10.8002 19.9001 10.9001 19.9001 11.0001C19.9001 11.1001 19.8002 11.2001 19.7002 11.2001Z" fill="white"/>
<path fill-rule="evenodd" clip-rule="evenodd" d="M18.0001 13.1001C17.9335 13.1001 17.8668 13.1001 17.8002 13.1001C17.7335 13.1001 17.6668 13.1001 17.6001 13.1001C17.4668 13.1001 17.3335 13.1001 17.2002 13.1001H17.1001V13.0001H17.2002C17.3002 13.0001 17.4001 13.0002 17.4001 12.8002V11.2001C17.4001 11.0001 17.3002 11.0001 17.2002 11.0001H17.1001V10.9001C17.2334 10.9001 17.3668 10.9001 17.5001 10.9001C17.5668 10.9001 17.6335 10.9001 17.7002 10.9001C17.8335 10.9001 17.9335 10.9001 18.0001 10.9001C18.9001 10.9001 19.3002 11.4001 19.3002 12.0001C19.3002 12.1001 19.2001 13.1001 18.0001 13.1001ZM18.0001 11.0001C17.8668 11.0001 17.8002 11.0001 17.8002 11.0001C17.8002 11.0001 17.7669 11.0001 17.7002 11.0001V12.7001C17.7002 13.0001 17.9001 13.0001 18.1001 13.0001C18.9001 13.0001 18.9001 12.3001 18.9001 12.0001C18.9001 11.4001 18.6001 11.0001 18.0001 11.0001Z" fill="white"/>
<path fill-rule="evenodd" clip-rule="evenodd" d="M12.7002 16.1002C11.9002 16.1002 11.1001 15.7001 10.6001 15.2001C10.0001 14.6001 9.7002 13.8001 9.7002 13.0001C9.7002 11.2001 11.0002 9.90015 12.7002 9.90015H13.4001C14.2001 9.90015 15.0001 10.2002 15.6001 10.8002C16.2001 11.4002 16.5001 12.1001 16.5001 13.0001C16.5001 13.8001 16.2001 14.6001 15.6001 15.2001C15.0001 15.7001 14.2001 16.1002 13.4001 16.1002H12.7002ZM12.7002 10.2001C11.2002 10.2001 10.0001 11.4001 10.0001 13.0001C10.0001 14.5001 11.2002 15.8002 12.7002 15.8002C14.2002 15.8002 15.4001 14.5001 15.4001 13.0001C15.4001 11.4001 14.2002 10.2001 12.7002 10.2001ZM13.3002 14.6001V11.3002C13.9002 11.6002 14.4001 12.2001 14.4001 13.0001C14.4001 13.7001 14.0002 14.4001 13.3002 14.6001ZM12.1001 14.6001C11.4001 14.4001 11.0001 13.7001 11.0001 13.0001C11.0001 12.2001 11.4001 11.6002 12.1001 11.3002V14.6001Z" fill="white"/>
</svg>
