<svg width="43" height="27" viewBox="0 0 43 27" fill="none" xmlns="http://www.w3.org/2000/svg">
<path d="M0 1.30017C0 0.700171 0.600049 0.100098 1.30005 0.100098H41.6C42.3 0.100098 42.8 0.700171 42.8 1.30017V25.7001C42.8 26.3001 42.3 26.9 41.6 26.9H1.30005C0.600049 26.9 0 26.3001 0 25.7001V1.30017Z" fill="#F9F9F9"/>
<path d="M42.8002 15.5001V25.7001C42.8002 26.3001 42.3001 26.9 41.6001 26.9H11.6001C24.9001 24.1 34.4002 20.4001 42.8002 15.5001Z" fill="#F58220"/>
<path d="M32 11.4001V11.1001H32.1C32.1666 11.1001 32.2001 11.1334 32.2001 11.2001C32.2001 11.2667 32.1666 11.3002 32.1 11.3002L32.2001 11.4001H32.1L32 11.3002V11.4001Z" fill="#231F20"/>
<path fill-rule="evenodd" clip-rule="evenodd" d="M32.1 11.5001C31.9 11.5001 31.8 11.4002 31.8 11.3002C31.8 11.1002 31.9 11.0001 32.1 11.0001C32.2 11.0001 32.3 11.1002 32.3 11.3002C32.3 11.4002 32.2 11.5001 32.1 11.5001ZM32.1 11.0001C31.9 11.0001 31.9 11.1002 31.9 11.3002C31.9 11.4002 31.9 11.5001 32.1 11.5001C32.2 11.5001 32.3 11.4002 32.3 11.3002C32.3 11.1002 32.2 11.0001 32.1 11.0001Z" fill="#231F20"/>
<path fill-rule="evenodd" clip-rule="evenodd" d="M30.2001 14.5001H29.5V10.9001H30.5C31.3 10.9001 31.7001 11.3001 31.7001 12.0001C31.7001 12.5001 31.4 12.9001 30.9 13.0001L32 14.5001H31.2001L30.2001 13.1001V14.5001ZM30.2001 11.5001V12.6001H30.4C30.8 12.6001 31 12.4001 31 12.0001C31 11.6668 30.8 11.5001 30.4 11.5001H30.2001Z" fill="#231F20"/>
<path d="M27.2002 10.9001H29.0001V11.5001H27.8002V12.3002H29.0001V12.9001H27.8002V13.9001H29.0001V14.5001H27.2002V10.9001Z" fill="#231F20"/>
<path d="M26.1001 10.9001H26.8002L25.4001 14.6001H25.0001L23.6001 10.9001H24.3002L25.2002 13.3002L26.1001 10.9001Z" fill="#231F20"/>
<path d="M21.9 10.9001C22.9 10.9001 23.7001 11.7001 23.7001 12.7001C23.7001 13.8001 22.9 14.6001 21.9 14.6001C20.8 14.6001 20 13.8001 20 12.7001C20 11.7001 20.9 10.9001 21.9 10.9001Z" fill="#F48027"/>
<path d="M19.0001 10.9001C19.3001 10.9001 19.5002 10.9001 19.8002 11.1001V11.9001C19.5002 11.6001 19.3001 11.5001 18.9001 11.5001C18.3001 11.5001 17.8002 12.0001 17.8002 12.7001C17.8002 13.5001 18.3001 14.0001 19.0001 14.0001C19.3001 14.0001 19.5002 13.9001 19.8002 13.6001V14.4001C19.5002 14.6001 19.2001 14.6001 18.9001 14.6001C17.9001 14.6001 17.1001 13.8001 17.1001 12.7001C17.1001 11.7001 18.0001 10.9001 19.0001 10.9001Z" fill="#231F20"/>
<path d="M16.9001 13.4001C16.9001 14.1001 16.4002 14.6001 15.7002 14.6001C15.2002 14.6001 14.9001 14.4001 14.6001 13.9001L15.0001 13.5001C15.1335 13.8335 15.3669 14.0001 15.7002 14.0001C16.0002 14.0001 16.2002 13.8001 16.2002 13.5001C16.2002 13.3001 16.1335 13.1668 16.0001 13.1001C16.0001 13.0334 15.8668 12.9668 15.6001 12.9001C15.0001 12.7001 14.7002 12.4001 14.7002 11.9001C14.7002 11.3001 15.2002 10.9001 15.8002 10.9001C16.2002 10.9001 16.5335 11.0335 16.8002 11.3002L16.5001 11.8002C16.3001 11.6002 16.1001 11.5001 15.9001 11.5001C15.6001 11.5001 15.4001 11.6001 15.4001 11.9001C15.4001 12.1001 15.5001 12.2002 15.9001 12.3002C16.7001 12.6002 16.9001 12.9001 16.9001 13.4001Z" fill="#231F20"/>
<path d="M13.6001 10.9001H14.3002V14.5001H13.6001V10.9001Z" fill="#231F20"/>
<path fill-rule="evenodd" clip-rule="evenodd" d="M11.5 14.5001H10.5V10.9001H11.5C12.6 10.9001 13.3 11.7001 13.3 12.7001C13.3 13.3001 13.1001 13.8001 12.7001 14.1001C12.4001 14.4001 12 14.5001 11.5 14.5001ZM11.2001 11.5001V13.9001H11.4C11.8 13.9001 12.1 13.8001 12.3 13.6001C12.5 13.4001 12.6 13.1001 12.6 12.7001C12.6 12.4001 12.5 12.0002 12.3 11.8002C12.1 11.6002 11.8 11.5001 11.4 11.5001H11.2001Z" fill="#231F20"/>
</svg>
