<svg width="43" height="27" viewBox="0 0 43 27" fill="none" xmlns="http://www.w3.org/2000/svg">
<path d="M0 1.30017C0 0.700171 0.600049 0.100098 1.30005 0.100098H41.6C42.3 0.100098 42.8 0.700171 42.8 1.30017V25.7001C42.8 26.3001 42.3 26.9 41.6 26.9H1.30005C0.600049 26.9 0 26.3001 0 25.7001V1.30017Z" fill="#14457C"/>
<path d="M23.6 13.5001C23.6 17.2001 20.7 20.2001 17.1 20.2001C13.4 20.2001 10.5 17.2001 10.5 13.5001C10.5 9.80012 13.4 6.80017 17.1 6.80017C20.7 6.80017 23.6 9.80012 23.6 13.5001Z" fill="#D82332"/>
<path d="M32.5 13.5001C32.5 17.2001 29.6 20.2001 26 20.2001C24.3 20.2001 22.7 19.5 21.5 18.4C21.7667 18.2 22.0001 17.9667 22.2001 17.7001H20.9C20.7 17.5001 20.5334 17.2668 20.4 17.0001H22.7001C22.8334 16.8001 22.9666 16.5668 23.1 16.3002H20C19.8667 16.1002 19.7667 15.8669 19.7001 15.6002H23.4C23.6 14.9336 23.7001 14.2335 23.7001 13.5001C23.7001 13.0335 23.6666 12.5668 23.6 12.1001H19.5C19.5667 11.8334 19.6334 11.6001 19.7001 11.4001H23.4C23.2667 11.1335 23.1666 10.9001 23.1 10.7001H20C20.1333 10.4334 20.2667 10.2001 20.4 10.0001H22.7001C22.5667 9.73346 22.4001 9.50017 22.2001 9.30017H20.9C21.1 9.0335 21.3 8.76679 21.5 8.50012C22.7 7.50012 24.3 6.80017 26 6.80017C29.6 6.80017 32.5 9.80012 32.5 13.5001Z" fill="#F1AB3E"/>
<path fill-rule="evenodd" clip-rule="evenodd" d="M31.8002 17.4C31.7002 17.4 31.6001 17.3002 31.6001 17.1002C31.6001 17.0002 31.7002 16.9 31.8002 16.9C31.9002 16.9 32.0001 17.0002 32.0001 17.1002C32.0001 17.3002 31.9002 17.4 31.8002 17.4ZM31.8002 17.0001C31.7002 17.0001 31.6001 17.1002 31.6001 17.1002C31.6001 17.2002 31.7002 17.3002 31.8002 17.3002C31.9002 17.3002 31.9001 17.2002 31.9001 17.1002C31.9001 17.1002 31.9002 17.0001 31.8002 17.0001Z" fill="#F1AB3E"/>
<path fill-rule="evenodd" clip-rule="evenodd" d="M31.8002 15.3002C31.7002 15.3002 31.6001 15.2001 31.6001 15.0001C31.6001 14.9001 31.7002 14.8002 31.8002 14.8002C31.9002 14.8002 32.0001 14.9001 32.0001 15.0001C32.0001 15.2001 31.9002 15.3002 31.8002 15.3002ZM31.8002 14.9001C31.7002 14.9001 31.6001 14.9001 31.6001 15.0001C31.6001 15.1001 31.7002 15.2001 31.8002 15.2001C31.9002 15.2001 31.9001 15.1001 31.9001 15.0001C31.9001 14.9001 31.9002 14.9001 31.8002 14.9001Z" fill="#FFFFFE"/>
<path fill-rule="evenodd" clip-rule="evenodd" d="M29.8 15.4C29.2 15.4 28.9 15.0002 28.9 14.3002C28.9 13.9668 28.9666 13.6668 29.1 13.4001C28.9 13.4001 28.8 13.5001 28.6 13.6001C28.5333 13.6668 28.5 13.7335 28.5 13.8002C28.4333 14.2668 28.3334 14.8 28.2001 15.4H27.5L27.6 15.2001C27.6 14.9334 27.6334 14.6335 27.7001 14.3002C27.7667 13.7668 27.8334 13.2001 27.9 12.6001H28.6C28.6 12.6668 28.6 12.8001 28.6 13.0001C28.6 13.0001 28.9001 13.1001 29.2001 13.2001C29.4001 12.8001 29.7 12.5001 30.1 12.5001C30.4 12.5001 30.6001 12.7001 30.7001 13.0001L30.9 12.0001H31.6L31.1 15.4H30.4V15.1002C30.2 15.3002 30 15.4 29.8 15.4ZM30.2001 13.3002C29.9001 13.3002 29.6 13.6001 29.6 14.2001C29.6 14.5334 29.7333 14.7001 30 14.7001C30.3 14.7001 30.6 14.3002 30.6 13.8002C30.6 13.4668 30.4667 13.3002 30.2001 13.3002Z" fill="#0C2D5A"/>
<path fill-rule="evenodd" clip-rule="evenodd" d="M26 15.5001C25.6 15.5001 25.3 15.2001 25.3 14.7001C25.3 14.0001 25.8 13.7001 26.6 13.7001C26.6666 13.7001 26.7667 13.7001 26.9 13.7001C26.9 13.6001 26.9 13.6001 26.9 13.5001C26.9 13.3001 26.8 13.3002 26.5 13.3002H26.4C26.2 13.3002 25.9667 13.3335 25.7001 13.4001C25.7001 13.3001 25.8 12.8002 25.8 12.8002C26.2 12.7002 26.4001 12.6001 26.7001 12.6001C27.0334 12.6001 27.2667 12.7001 27.4 12.9001C27.5334 13.0335 27.6 13.2001 27.6 13.4001C27.6 13.5335 27.5667 13.7335 27.5 14.0001V14.1001C27.4 14.5001 27.3 15.2 27.3 15.4H26.7001V15.1002C26.5667 15.3669 26.3333 15.5001 26 15.5001ZM26.6 14.2001C26.2 14.2001 26 14.3334 26 14.6001C26 14.8001 26.1 14.9001 26.3 14.9001C26.6 14.9001 26.8 14.6001 26.8 14.2001C26.7334 14.2001 26.6666 14.2001 26.6 14.2001Z" fill="#0C2D5A"/>
<path d="M24.0001 14.0001C24.0001 14.5001 24.3002 14.8002 24.7002 14.8002C24.8335 14.8002 25.0335 14.7334 25.3002 14.6001L25.2002 15.4C24.9002 15.5 24.7001 15.5001 24.5001 15.5001C23.8001 15.5001 23.3002 14.9001 23.3002 14.0001C23.3002 13.8001 23.3002 13.6335 23.3002 13.5001C23.1002 13.5001 22.9668 13.5667 22.9001 13.7001L22.6001 13.8002C22.6001 14.2002 22.5001 14.7001 22.4001 15.5001H21.7002V15.3002C21.9002 14.4002 22.0001 13.6001 22.1001 12.7001H22.8002C22.8002 12.7667 22.7669 12.8668 22.7002 13.0001L22.9001 12.9001C23.1001 12.7001 23.3002 12.4001 23.7002 12.5001C24.0002 12.1001 24.4001 11.9001 24.9001 11.9001C25.2001 11.9001 25.6002 12.1001 25.7002 12.2001L25.6001 12.9001C25.3001 12.8001 25.1001 12.7001 24.9001 12.7001C24.4001 12.7001 24.0001 13.2001 24.0001 14.0001Z" fill="#0C2D5A"/>
<path fill-rule="evenodd" clip-rule="evenodd" d="M20.7001 15.5001C19.9001 15.5001 19.5 15.0001 19.5 14.2001C19.5 13.3001 20.1 12.6001 20.8 12.6001C21.4 12.6001 21.7001 13.0001 21.7001 13.6001C21.7001 13.8001 21.7 14.0002 21.6 14.3002H20.2001C20.2001 14.4335 20.2334 14.5667 20.3 14.7001C20.4334 14.7667 20.6 14.8335 20.8 14.9001C21.0667 14.9001 21.3333 14.8334 21.6 14.7001L21.5 15.4C21.2333 15.4667 20.9667 15.5001 20.7001 15.5001ZM20.7001 13.2001C20.5001 13.2001 20.3667 13.3667 20.3 13.7001H21.1C21.1 13.6001 21.1 13.5002 21 13.3002C20.9333 13.2335 20.8334 13.2001 20.7001 13.2001Z" fill="#0C2D5A"/>
<path d="M19.3002 15.4C19.1002 15.4667 18.9002 15.5001 18.7002 15.5001C18.3669 15.5001 18.2002 15.3001 18.2002 14.9001C18.2002 14.8001 18.2002 14.5001 18.3002 14.2001C18.3002 13.9001 18.6001 12.3002 18.6001 12.3002H19.3002L19.2002 12.7001H19.6001L19.5001 13.4001H19.1001C19.0001 13.9001 18.9001 14.5001 18.9001 14.6001C18.9001 14.7334 19.0002 14.8002 19.2002 14.8002C19.2669 14.8002 19.3335 14.8002 19.4001 14.8002L19.3002 15.4Z" fill="#0C2D5A"/>
<path d="M17.6001 12.6001C17.7001 12.6001 18.0002 12.6001 18.2002 12.7001L18.1001 13.3002C17.9001 13.3002 17.7334 13.3002 17.6001 13.3002C17.3334 13.3002 17.2002 13.3668 17.2002 13.5001C17.2002 13.6001 17.2001 13.6002 17.5001 13.8002C17.9001 14.0002 18.1001 14.2001 18.1001 14.6001C18.1001 15.2001 17.7001 15.5001 17.0001 15.5001C16.5001 15.5001 16.4002 15.4 16.2002 15.4L16.3002 14.8002C16.5002 14.8668 16.7001 14.9001 16.9001 14.9001C17.2335 14.9001 17.4001 14.8001 17.4001 14.6001C17.4001 14.5001 17.3001 14.4002 17.0001 14.3002C16.6001 14.1002 16.5001 13.9001 16.5001 13.5001C16.5001 13.0001 16.8001 12.6001 17.6001 12.6001Z" fill="#0C2D5A"/>
<path fill-rule="evenodd" clip-rule="evenodd" d="M14.8002 15.5001C14.4002 15.5001 14.1001 15.2001 14.1001 14.7001C14.1001 14.0001 14.6001 13.7001 15.4001 13.7001C15.4668 13.7001 15.5669 13.7001 15.7002 13.7001C15.7002 13.6334 15.7002 13.5668 15.7002 13.5001C15.7002 13.3001 15.6002 13.3002 15.2002 13.3002C15.0002 13.3002 14.7668 13.3335 14.5001 13.4001C14.5001 13.3001 14.6001 12.8002 14.6001 12.8002C14.9001 12.7002 15.2001 12.6001 15.4001 12.6001C16.0668 12.6001 16.4001 12.8668 16.4001 13.4001C16.4001 13.5335 16.3668 13.7335 16.3002 14.0001C16.3002 14.3001 16.1001 15.2 16.1001 15.4H15.5001V15.1002C15.3668 15.3669 15.1335 15.5001 14.8002 15.5001ZM15.4001 14.2001C15.0001 14.2001 14.8002 14.3334 14.8002 14.6001C14.8002 14.8001 14.9001 14.9001 15.1001 14.9001C15.4001 14.9001 15.6001 14.6001 15.6001 14.2001C15.5334 14.2001 15.4668 14.2001 15.4001 14.2001Z" fill="#0C2D5A"/>
<path d="M13.7999 15.5001H13.0999L13.4999 12.9001L12.5999 15.5001H12.0999L11.9999 12.9001L11.5999 15.5001H10.8999L11.4999 12.1001H12.4999V14.2001L13.2 12.1001H14.2999L13.7999 15.5001Z" fill="#0C2D5A"/>
<path fill-rule="evenodd" clip-rule="evenodd" d="M30.0001 15.3002C29.5001 15.3002 29.2002 14.8001 29.2002 14.2001C29.2002 13.3001 29.7002 12.5001 30.3002 12.5001C30.5668 12.5001 30.8001 12.6335 31.0001 12.9001L31.2002 11.9001H31.9001L31.3002 15.3002H30.7002V15.0001C30.5002 15.2001 30.2668 15.3002 30.0001 15.3002ZM30.5001 13.2001C30.2001 13.2001 29.9001 13.5001 29.9001 14.1001C29.9001 14.4334 30.0335 14.6001 30.3002 14.6001C30.6002 14.6001 30.9001 14.2001 30.9001 13.7001C30.9001 13.3667 30.7668 13.2001 30.5001 13.2001Z" fill="#FFFFFE"/>
<path d="M28.8002 12.4001C28.8002 12.5335 28.8002 12.6668 28.8002 12.8002C29.0002 12.5002 29.1001 12.4001 29.4001 12.4001C29.3001 12.6001 29.2002 12.9001 29.2002 13.2001C28.8002 13.2001 28.7001 13.5001 28.4001 15.2001H27.7002L27.8002 15.0001C27.9002 14.1001 28.0001 13.3001 28.1001 12.4001H28.8002Z" fill="#FFFFFE"/>
<path fill-rule="evenodd" clip-rule="evenodd" d="M26.2002 15.3002C25.8002 15.3002 25.6001 15.0001 25.6001 14.5001C25.6001 13.8001 26.0002 13.5001 26.8002 13.5001C26.8668 13.5001 26.9668 13.5001 27.1001 13.5001C27.1001 13.4001 27.1001 13.3002 27.1001 13.3002C27.1001 13.1002 27.0002 13.0001 26.7002 13.0001H26.6001C26.4001 13.0001 26.1668 13.0667 25.9001 13.2001C25.9001 13.1001 26.0001 12.6001 26.0001 12.5001C26.4001 12.4001 26.6001 12.4001 26.9001 12.4001C27.2335 12.4001 27.4668 12.4668 27.6001 12.6001C27.7334 12.7334 27.8002 12.9334 27.8002 13.2001C27.8002 13.3334 27.7669 13.5335 27.7002 13.8002V13.9001C27.7002 14.3001 27.5001 15.0001 27.5001 15.2001H26.9001L27.0001 14.9001C26.8001 15.1668 26.5335 15.3002 26.2002 15.3002ZM26.9001 14.0001C26.4335 14.0001 26.2002 14.1335 26.2002 14.4001C26.2002 14.6001 26.3001 14.7001 26.5001 14.7001C26.8001 14.7001 27.0001 14.4001 27.0001 14.0001C26.9335 14.0001 26.9001 14.0001 26.9001 14.0001Z" fill="#FFFFFE"/>
<path d="M25.9 11.9001L25.8 12.7001C25.5 12.6001 25.3 12.5001 25.1 12.5001C24.6 12.5001 24.2001 13.0002 24.2001 13.8002C24.2001 14.3002 24.5 14.6001 24.9 14.6001C25.0334 14.6001 25.2333 14.5335 25.5 14.4001L25.4 15.2001C25.1 15.3001 24.9001 15.3002 24.7001 15.3002C24.0001 15.3002 23.5 14.7002 23.5 13.8002C23.5 12.6002 24.1 11.8002 25.1 11.8002C25.4 11.8002 25.8 11.9001 25.9 11.9001Z" fill="#FFFFFE"/>
<path d="M22.9999 12.4001C22.9999 12.5335 22.9666 12.6668 22.8999 12.8002C23.1999 12.5002 23.2999 12.4001 23.5999 12.4001C23.4999 12.6001 23.3999 12.9001 23.2999 13.2001C22.8999 13.2001 22.8999 13.5001 22.5999 15.2001H21.8999L21.9999 15.0001C22.0999 14.1001 22.1999 13.3001 22.2999 12.4001H22.9999Z" fill="#FFFFFE"/>
<path fill-rule="evenodd" clip-rule="evenodd" d="M20.9001 15.3002C20.2001 15.3002 19.7002 14.8001 19.7002 14.0001C19.7002 13.1001 20.3001 12.4001 21.0001 12.4001C21.6001 12.4001 21.9001 12.8001 21.9001 13.4001C21.9001 13.6001 21.9001 13.8001 21.9001 14.1001H20.4001C20.4001 14.2334 20.4335 14.3668 20.5001 14.5001C20.6335 14.5668 20.8334 14.6001 21.1001 14.6001C21.3001 14.6001 21.5335 14.5668 21.8002 14.5001L21.7002 15.1002C21.4335 15.2336 21.1668 15.3002 20.9001 15.3002ZM20.9001 13.0001C20.7001 13.0001 20.5668 13.1668 20.5001 13.5001H21.3002C21.3002 13.4001 21.3002 13.2001 21.2002 13.1001C21.1335 13.0334 21.0335 13.0001 20.9001 13.0001Z" fill="#FFFFFE"/>
<path d="M19.4999 15.2001C19.2999 15.2667 19.1332 15.3002 18.9999 15.3002C18.5999 15.3002 18.3999 15.1001 18.3999 14.7001C18.3999 14.6001 18.3999 14.3001 18.4999 14.0001C18.4999 13.7001 18.7999 12.1001 18.7999 12.1001H19.4999L19.3999 12.5001H19.7999L19.7 13.2001H19.2999C19.1999 13.7001 19.0999 14.3001 19.0999 14.4001C19.0999 14.5335 19.1999 14.6001 19.3999 14.6001C19.4666 14.6001 19.5332 14.6001 19.5999 14.6001L19.4999 15.2001Z" fill="#FFFFFE"/>
<path d="M17.7999 12.4001C17.8999 12.4001 18.1999 12.4001 18.3999 12.5001L18.2999 13.1001C18.0999 13.1001 17.9333 13.1001 17.7999 13.1001C17.5333 13.1001 17.3999 13.1668 17.3999 13.3002C17.3999 13.4002 17.4999 13.4001 17.7999 13.6001C18.0999 13.7001 18.2999 14.0002 18.2999 14.3002C18.2999 15.0002 17.9 15.3002 17.2 15.3002C16.7 15.2002 16.5999 15.2001 16.3999 15.2001L16.4999 14.5001C16.6999 14.6335 16.9333 14.7001 17.2 14.7001C17.4666 14.7001 17.5999 14.6001 17.5999 14.4001C17.5999 14.3001 17.5 14.2001 17.2 14.1001C16.9 13.9001 16.7 13.7002 16.7 13.3002C16.7 12.8002 16.9999 12.4001 17.7999 12.4001Z" fill="#FFFFFE"/>
<path fill-rule="evenodd" clip-rule="evenodd" d="M15 15.3002C14.6 15.3002 14.3 15.0001 14.3 14.5001C14.3 13.8001 14.8 13.5001 15.6 13.5001C15.6666 13.5001 15.7667 13.5001 15.9 13.5001C15.9 13.4335 15.9 13.3668 15.9 13.3002C15.9 13.1002 15.8 13.0001 15.5 13.0001H15.4C15.2 13.0001 14.9667 13.0667 14.7001 13.2001C14.7001 13.1001 14.8 12.6001 14.8 12.5001C15.2 12.4001 15.4001 12.4001 15.7001 12.4001C16.3001 12.4001 16.6 12.6667 16.6 13.2001C16.6 13.3334 16.5667 13.5335 16.5 13.8002C16.5 14.1002 16.3 15.0001 16.3 15.2001H15.7001V14.9001C15.5667 15.1668 15.3333 15.3002 15 15.3002ZM15.6 14.0001C15.2 14.0001 15 14.1335 15 14.4001C15 14.6001 15.1 14.7001 15.3 14.7001C15.6 14.7001 15.8 14.4001 15.8 14.0001C15.7334 14.0001 15.6666 14.0001 15.6 14.0001Z" fill="#FFFFFE"/>
<path d="M14.0001 15.3002H13.3002L13.7002 12.7001L12.8002 15.3002H12.3002L12.2002 12.7001L11.8002 15.3002H11.1001L11.7002 11.9001H12.7002V14.0001L13.4001 11.9001H14.5001L14.0001 15.3002Z" fill="#FFFFFE"/>
</svg>
