<svg width="43" height="27" viewBox="0 0 43 27" fill="none" xmlns="http://www.w3.org/2000/svg">
<path d="M0.0998535 1.30017C0.0998535 0.700171 0.699927 0.100098 1.29993 0.100098H41.3999C42.0999 0.100098 42.5999 0.700171 42.5999 1.30017V25.7001C42.5999 26.3001 42.0999 26.9 41.3999 26.9H1.29993C0.699927 26.9 0.0998535 26.3001 0.0998535 25.7001V1.30017Z" fill="#2890C3"/>
<path d="M27.8999 16.6002H28.3999C28.4666 16.6002 28.4999 16.6334 28.4999 16.7001L28.0999 19.6002C28.0999 19.6669 28.0332 19.7001 27.8999 19.7001H27.4999C27.4332 19.7001 27.3999 19.6669 27.3999 19.6002L27.7999 16.7001C27.8666 16.6334 27.8999 16.6002 27.8999 16.6002Z" fill="white"/>
<path fill-rule="evenodd" clip-rule="evenodd" d="M25.5996 19.8002C25.2663 19.8002 25.033 19.7001 24.8997 19.5001C24.6997 19.3001 24.6997 19.0001 24.6997 18.7001C24.7997 18.0001 25.2997 17.6002 25.8997 17.6002C26.233 17.6002 26.433 17.6668 26.4996 17.8002L26.5996 17.9V17.7001C26.5996 17.6334 26.633 17.6002 26.6997 17.6002H27.1997C27.2664 17.6002 27.2997 17.6334 27.2997 17.7001L26.9996 19.6002C26.9996 19.6669 26.9663 19.7001 26.8997 19.7001H26.3997C26.333 19.7001 26.2997 19.7001 26.2997 19.7001C26.2997 19.7001 26.2997 19.6669 26.2997 19.6002V19.5001C26.2997 19.5001 25.9996 19.8002 25.5996 19.8002ZM25.9996 18.2001C25.6996 18.2001 25.4997 18.4001 25.3997 18.7001C25.3997 18.8334 25.433 18.9669 25.4996 19.1002C25.5663 19.1669 25.6997 19.2001 25.8997 19.2001C26.1997 19.2001 26.3996 19.0001 26.4996 18.7001C26.4996 18.5667 26.4663 18.4335 26.3997 18.3002C26.333 18.2335 26.1996 18.2001 25.9996 18.2001Z" fill="white"/>
<path fill-rule="evenodd" clip-rule="evenodd" d="M22.8997 19.7001H22.2997C22.233 19.7001 22.1997 19.7001 22.1997 19.7001C22.1997 19.7001 22.1997 19.6669 22.1997 19.6002L22.5996 16.7001C22.6663 16.6334 22.733 16.6002 22.7997 16.6002H23.8997C24.2997 16.6002 24.5664 16.7 24.6997 16.9C24.833 17.0334 24.8997 17.2669 24.8997 17.6002C24.7663 18.3336 24.3329 18.7001 23.5996 18.7001H23.1997C23.133 18.7001 23.0996 18.7335 23.0996 18.8002L22.9996 19.6002C22.933 19.6669 22.8997 19.7001 22.8997 19.7001ZM23.3997 17.2001C23.333 17.2001 23.2997 17.2335 23.2997 17.3002L23.1997 18.1002H23.3997C23.6997 18.1002 23.9996 18.1001 23.9996 17.7001C24.0663 17.5001 24.0663 17.3668 23.9996 17.3002C23.8996 17.2002 23.6996 17.2001 23.4996 17.2001H23.3997Z" fill="white"/>
<path d="M22.1999 17.8002L20.3998 20.4C20.3998 20.4 20.3665 20.4335 20.2998 20.5001H19.7998C19.6998 20.5001 19.6999 20.4002 19.6999 20.3002L20.2998 19.5001L19.6999 17.8002C19.5999 17.7002 19.6998 17.6002 19.7998 17.6002H20.2998C20.3665 17.6002 20.3998 17.6334 20.3998 17.7001L20.6999 18.8002L21.4998 17.7001C21.4998 17.6334 21.5331 17.6002 21.5998 17.6002H22.0998C22.1998 17.6002 22.2999 17.7002 22.1999 17.8002Z" fill="white"/>
<path fill-rule="evenodd" clip-rule="evenodd" d="M17.6998 19.8002C17.3665 19.8002 17.1331 19.7001 16.9998 19.5001C16.7998 19.3001 16.7998 19.0001 16.7998 18.7001C16.8998 18.0001 17.3998 17.6002 17.9998 17.6002C18.3331 17.6002 18.5331 17.6668 18.5997 17.8002L18.6998 17.9V17.7001C18.6998 17.6334 18.7331 17.6002 18.7998 17.6002H19.2998C19.2998 17.6002 19.3331 17.6334 19.3998 17.7001L19.0997 19.6002C19.0997 19.6669 19.0664 19.7001 18.9998 19.7001H18.4998C18.4331 19.7001 18.3998 19.7001 18.3998 19.7001C18.3998 19.7001 18.3998 19.6669 18.3998 19.6002V19.5001C18.2998 19.5001 18.0998 19.8002 17.6998 19.8002ZM18.0997 18.2001C17.7997 18.2001 17.5998 18.4001 17.4998 18.7001C17.4998 18.8334 17.5331 18.9669 17.5997 19.1002C17.6664 19.1669 17.7998 19.2001 17.9998 19.2001C18.2998 19.2001 18.4997 19.0001 18.5997 18.7001C18.5997 18.5667 18.5664 18.4335 18.4998 18.3002C18.4331 18.2335 18.2997 18.2001 18.0997 18.2001Z" fill="white"/>
<path fill-rule="evenodd" clip-rule="evenodd" d="M14.8998 19.7001H14.3998C14.3331 19.7001 14.2998 19.7001 14.2998 19.7001C14.2998 19.7001 14.2998 19.6669 14.2998 19.6002L14.6998 16.7001C14.7665 16.6334 14.8331 16.6002 14.8998 16.6002H15.9998C16.3998 16.6002 16.6665 16.7 16.7998 16.9C16.9331 17.0334 16.9664 17.2669 16.8998 17.6002C16.8331 18.3336 16.4332 18.7001 15.6998 18.7001H15.2998C15.2331 18.7001 15.1998 18.7335 15.1998 18.8002L15.0997 19.6002C15.0331 19.6669 14.9664 19.7001 14.8998 19.7001ZM15.4998 17.2001C15.4331 17.2001 15.3998 17.2335 15.3998 17.3002L15.2998 18.1002H15.4998C15.7998 18.1002 16.0997 18.1001 16.0997 17.7001C16.1664 17.5001 16.1664 17.3668 16.0997 17.3002C15.9997 17.2002 15.7997 17.2001 15.5997 17.2001H15.4998Z" fill="white"/>
<path d="M24.7999 8.40015C24.7333 8.40015 24.7333 8.40015 24.7999 8.40015C24.7999 8.46681 24.7999 8.53343 24.7999 8.6001C24.3999 10.5001 23.0999 11.2001 21.4999 11.2001H20.7C20.5 11.2001 20.2999 11.3001 20.2999 11.5001V11.4001L19.8999 14.2001H18.2C18 14.2001 17.8999 14.1001 17.8999 13.9001L19.0999 6.40015C19.0999 6.20015 19.2999 6.1001 19.4999 6.1001H22.2999C23.1999 6.1001 23.9999 6.30017 24.3999 6.80017C24.7999 7.20017 24.8999 7.70015 24.7999 8.40015Z" fill="white"/>
<path d="M25.4 8.90015C25.8 9.40015 25.8001 9.9001 25.7001 10.6001C25.4001 12.3001 24.3 12.9001 22.9 12.9001H22.7001C22.5001 12.9001 22.4 13.0001 22.3 13.2001V13.3002L22 15.0001V15.1002C22 15.3002 21.9001 15.4 21.7001 15.4H20.2001C20.1001 15.4 20 15.3001 20 15.2001L20.6 11.7001C20.6 11.5001 20.8 11.4001 21 11.4001H21.8C23.4 11.4001 24.6 10.7002 25 8.80017C25 8.7335 25 8.66676 25 8.6001C25.2 8.73343 25.3334 8.83348 25.4 8.90015Z" fill="white"/>
<path d="M24.4998 8.30017C24.5664 8.30017 24.6665 8.33348 24.7998 8.40015C24.7998 8.46681 24.7998 8.50012 24.7998 8.50012C24.3998 10.5001 23.0998 11.1001 21.4998 11.1001H20.6998C20.4998 11.1001 20.2998 11.3001 20.2998 11.5001V11.4001L20.7998 8.40015C20.7998 8.26681 20.8664 8.16676 20.9998 8.1001C21.0664 8.1001 21.0997 8.1001 21.0997 8.1001H23.2998C23.5665 8.1001 23.7998 8.1001 23.9998 8.1001C24.0664 8.16676 24.1332 8.20007 24.1998 8.20007C24.2665 8.20007 24.3331 8.20007 24.3998 8.20007C24.3998 8.20007 24.4331 8.2335 24.4998 8.30017Z" fill="white"/>
</svg>
