<svg width="43" height="27" viewBox="0 0 43 27" fill="none" xmlns="http://www.w3.org/2000/svg">
<path d="M0.0998535 1.5C0.0998535 0.8 0.599927 0.300049 1.29993 0.300049H41.3999C41.9999 0.300049 42.5999 0.8 42.5999 1.5V25.5C42.5999 26.2 41.9999 26.8 41.3999 26.8H1.29993C0.599927 26.8 0.0998535 26.2 0.0998535 25.5V1.5Z" fill="#0066B2"/>
<path fill-rule="evenodd" clip-rule="evenodd" d="M31.5997 16.2C31.3997 16.2 31.2998 16.0999 31.2998 15.8999C31.2998 15.6999 31.3997 15.5 31.5997 15.5C31.7997 15.5 31.8998 15.6999 31.8998 15.8999C31.8998 16.0999 31.7997 16.2 31.5997 16.2ZM31.5997 15.6001C31.4997 15.6001 31.2998 15.6999 31.2998 15.8999C31.2998 15.9999 31.4997 16.1001 31.5997 16.1001C31.6997 16.1001 31.8998 15.9999 31.8998 15.8999C31.8998 15.6999 31.6997 15.6001 31.5997 15.6001ZM31.5997 16H31.4998V15.7H31.5997C31.6664 15.7 31.6998 15.7 31.6998 15.7C31.6998 15.7666 31.6998 15.8 31.6998 15.8C31.6998 15.8667 31.6998 15.8999 31.6998 15.8999V16L31.5997 15.8999V16Z" fill="white"/>
<path fill-rule="evenodd" clip-rule="evenodd" d="M26.8997 16.2H25.1997L27.6997 10.4C27.6997 10.4 27.7997 9.90002 28.3997 9.90002H29.7997L31.0996 16.2H29.5996L29.3997 15.3H27.2997L26.8997 16.2ZM28.5996 11.6L27.7997 14H29.0996L28.5996 11.6Z" fill="white"/>
<path d="M22.9996 11.7C22.9996 12.4 25.2997 12.5 25.2997 14.2C25.2997 15.8 23.5996 16.3 22.4996 16.3C21.3996 16.3 20.5996 16 20.5996 16L20.8997 14.6C21.5997 15.1 23.5996 15.3 23.5996 14.4C23.5996 13.5 21.2997 13.5 21.2997 11.9C21.2997 10.1 23.2996 9.80005 24.0996 9.80005C24.7996 9.80005 25.5996 10.1 25.5996 10.1L25.2997 11.4C24.5997 11 22.9996 10.9 22.9996 11.7Z" fill="white"/>
<path d="M19.5997 16.2H17.9998L18.9998 9.90002H20.5997L19.5997 16.2Z" fill="white"/>
<path d="M15.6997 16.2H13.9996L12.5996 10.7C12.7996 10.9 13.033 11.0666 13.2997 11.2C14.3997 12.1 14.7997 13.3 14.7997 13.3L14.9996 14.3L16.5996 9.90002H18.2997L15.6997 16.2Z" fill="white"/>
<path d="M13.2998 11.2C12.0998 10.3 10.7998 10 10.7998 10L10.8998 9.90002H13.4998C14.1998 9.90002 14.1998 10.5 14.1998 10.5L14.7998 13.3C14.7998 13.3 14.3998 12.2 13.2998 11.2Z" fill="#F9A533"/>
</svg>
