<svg width="38" height="30" viewBox="0 0 38 30" fill="none" xmlns="http://www.w3.org/2000/svg">
<path fill-rule="evenodd" clip-rule="evenodd" d="M29.5 30C28.2 30 27.2 29 27.2 27.8C27.2 26.6 28.2 25.6 29.5 25.6C30.7 25.6 31.7 26.6 31.7 27.8C31.7 29 30.7 30 29.5 30ZM18.5 30C17.3 30 16.3 29 16.3 27.8C16.3 26.6 17.3 25.6 18.5 25.6C19.8 25.6 20.8 26.6 20.8 27.8C20.8 29 19.8 30 18.5 30ZM28.9 23.2H18.3C15.8 23.2 13.6 21.6 12.7 19.2L8.80005 7.9L7.09998 3C6.89998 2.5 6.40005 2.1 5.80005 2.1H1.69995C1.09995 2.1 0.699951 1.6 0.699951 1C0.699951 0.5 1.09995 0 1.69995 0H5.80005C7.30005 0 8.59998 0.899999 9.09998 2.3L10.5 6.5H34.8C35.7001 6.5 36.6 7 37.1 7.7C37.7 8.4 37.8 9.4 37.5 10.2L34.5 19.1C33.7 21.6 31.5 23.2 28.9 23.2ZM11.3 8.6L14.7 18.5C15.2 20.1 16.7 21.1 18.3 21.1H28.9C30.6 21.1 32 20 32.5 18.5L35.5 9.6C35.5667 9.33333 35.5334 9.1 35.4 8.9C35.2667 8.7 35.0667 8.6 34.8 8.6H11.3Z" fill="#A8123E"/>
</svg>
