<svg width="31" height="30" viewBox="0 0 31 30" fill="none" xmlns="http://www.w3.org/2000/svg">
<path fill-rule="evenodd" clip-rule="evenodd" d="M26.9 30H4.5C3.3 30 2.2 29.5 1.5 28.6C0.800002 27.7 0.500051 26.6 0.800051 25.5C1.40005 22.9 2.79995 20.6 4.69995 18.7C6.49995 16.8 8.90003 15.4 11.4 14.7C9.00003 13.2 7.59998 10.7 7.59998 7.9C7.59998 3.6 11.2 0 15.7 0C20.1 0 23.8001 3.6 23.8001 7.9C23.8001 10.7 22.3 13.2 19.9 14.7C22.5 15.4 24.8 16.8 26.7 18.7C28.6 20.6 29.9 22.9 30.6 25.5C30.8 26.6 30.6 27.7 29.9 28.6C29.2 29.5 28.1 30 26.9 30ZM15.7 15.9C9.39995 15.9 4 20 2.5 25.9C2.4 26.5 2.50003 27 2.90003 27.5C3.20003 28 3.8 28.3 4.5 28.3H26.9C27.5 28.3 28.1 28 28.5 27.5C28.8 27 29.0001 26.5 28.8001 25.9C27.3001 20 21.9 15.9 15.7 15.9ZM15.7 1.7C12.2 1.7 9.30005 4.5 9.30005 7.9C9.30005 11.4 12.2 14.1 15.7 14.1C19.2 14.1 22 11.4 22 7.9C22 4.5 19.2 1.7 15.7 1.7Z" fill="#A8123E"/>
</svg>
