<svg width="64" height="64" viewBox="0 0 64 64" fill="none" xmlns="http://www.w3.org/2000/svg">
<rect width="64" height="64" rx="12" fill="#EEEEEE"/>
<path d="M46.5112 46.9354C44.562 46.9354 42.6127 46.9006 40.6634 46.9354C38.8185 46.9354 37.3914 46.1696 36.4167 44.5684C31.9961 37.537 27.6102 30.5405 23.1895 23.5092C22.737 22.7782 22.1452 22.4301 21.2402 22.4301C18.8036 22.4301 16.3322 22.4301 13.8608 22.4301C13.6171 22.4301 13.5127 22.3605 13.5127 22.1168C13.5359 20.5157 13.5359 18.9261 13.5127 17.3481C13.5127 17.0696 13.6171 17 13.8608 17C16.8891 17 19.9175 17 22.911 17C24.6166 17.0348 25.9394 17.7658 26.8792 19.2278C31.3347 26.3287 35.8018 33.4412 40.2805 40.5654C40.6634 41.1919 41.2203 41.5053 41.9861 41.5053C44.9797 41.5053 47.9848 41.5053 51.0015 41.5053C51.8021 41.5053 52.3591 41.1572 52.742 40.4958C54.2504 37.8968 55.7471 35.2977 57.2323 32.6987C57.3367 32.455 57.4411 32.4202 57.6848 32.5594C59.0539 33.3716 60.4347 34.1722 61.827 34.9612C62.0359 35.0656 62.0359 35.1701 61.9315 35.3441C60.1678 38.4073 58.4042 41.4704 56.6405 44.5336C55.7355 46.1348 54.3432 46.9006 52.4983 46.9354C50.5142 46.9354 48.4953 46.9354 46.5112 46.9354V46.9354Z" fill="#FE9752"/>
<path d="M28.0627 33.6733C29.107 35.3441 30.1512 36.9801 31.1607 38.6161C31.2303 38.7205 31.2303 38.7902 31.1607 38.8946C29.8728 40.9483 28.6197 43.002 27.2969 45.0209C26.4615 46.274 25.2084 46.9006 23.7117 46.9006C19.5578 46.947 15.4156 46.947 11.285 46.9006C9.64899 46.9006 8.32626 46.1696 7.49085 44.7424C5.646 41.6096 3.87077 38.4421 2.06072 35.3093C1.95629 35.1352 1.9911 35.0656 2.13033 34.996C3.56909 34.1606 4.99624 33.3252 6.41179 32.4898C6.65545 32.3506 6.69026 32.4898 6.75988 32.629C7.94337 34.6944 9.11525 36.748 10.2755 38.7901C10.6236 39.3471 10.9601 39.9156 11.285 40.4958C11.6563 41.1687 12.2248 41.5052 12.9906 41.5052C16.0074 41.5052 19.0125 41.5052 22.006 41.5052C22.7718 41.5052 23.3636 41.1919 23.7465 40.5306C25.1156 38.3492 26.4847 36.1679 27.8539 33.9866C27.9235 33.917 27.9931 33.8125 28.0627 33.6733V33.6733Z" fill="#B31336"/>
<path d="M35.9296 31.2715C35.0942 29.914 34.2587 28.6261 33.4233 27.3033C33.2493 26.9901 33.0404 26.6768 32.8664 26.3635C32.762 26.2591 32.762 26.1547 32.8664 26.0502C34.3284 23.6832 35.7903 21.3511 37.2871 19.0189C38.1225 17.6962 39.4452 17.0348 41.0116 17C44.0748 17 47.1379 17 50.2011 17C50.4447 17 50.4795 17.0696 50.4795 17.2785C50.4795 18.9029 50.4795 20.5273 50.4795 22.1517C50.4795 22.3953 50.4099 22.4301 50.1663 22.4301C47.66 22.4301 45.1538 22.4301 42.6476 22.4301C41.8818 22.4301 41.2901 22.7434 40.8724 23.4048C39.2944 25.9342 37.7164 28.4636 36.1384 30.993C36.0688 31.0627 36.034 31.1671 35.9296 31.2715V31.2715Z" fill="#B31336"/>
</svg>
