<svg width="108" height="32" viewBox="0 0 108 32" fill="none" xmlns="http://www.w3.org/2000/svg">
<path d="M104.2 32H3.80005C1.70005 32 0 30.3 0 28.2V3.80005C0 1.70005 1.70005 0 3.80005 0H104.2C106.3 0 108 1.70005 108 3.80005V28.2C108 30.3 106.3 32 104.2 32Z" fill="#A6A6A6"/>
<path d="M107.2 28.2C107.2 29.9 105.9 31.3 104.2 31.3H3.80017C2.10017 31.3 0.700195 29.9 0.700195 28.2V3.80005C0.700195 2.10005 2.10017 0.699951 3.80017 0.699951H104.2C105.9 0.699951 107.2 2.10005 107.2 3.80005V28.2Z" fill="black"/>
<path d="M26.9001 20C26.8001 20 26.4001 21.4001 25.4001 22.8001C24.6001 24.1001 23.7001 25.3 22.3001 25.4C21.0001 25.4 20.5001 24.6 19.0001 24.6C17.4001 24.6 16.9 25.3 15.6 25.4C14.3 25.4 13.3001 24.0001 12.4001 22.8001C10.7001 20.3001 9.30005 15.7 11.1 12.5C12 11 13.6001 10 15.3001 10C16.6001 9.90002 17.9001 10.9 18.7001 10.9C19.5001 10.9 21 9.70005 22.6 9.90005C23.3 9.90005 25.1001 10.2 26.3001 11.9C26.2001 12 24.1 13.2001 24.1 15.8001C24.2 18.9001 26.8001 19.9 26.9001 20Z" fill="white"/>
<path d="M18.5002 9.69995C18.4002 8.49995 19.0002 7.3 19.6002 6.5C20.3002 5.7 21.6002 5 22.6002 5C22.7002 6.2 22.3002 7.39995 21.6002 8.19995C20.8002 9.09995 19.7002 9.79995 18.5002 9.69995Z" fill="white"/>
<path fill-rule="evenodd" clip-rule="evenodd" d="M35.7001 25.2H34L37.4 14.6H39.5L42.9 25.2H41.1L40.1 22.1H36.7001L35.7001 25.2ZM38.4 16C38.2667 16.4667 38.1 17.1333 37.9 18L37 20.8H39.8L38.9 18C38.8334 17.7333 38.6667 17.0667 38.4 16Z" fill="white"/>
<path fill-rule="evenodd" clip-rule="evenodd" d="M46.0999 28.3H44.3999V20.1C44.3999 19.2333 44.3999 18.3667 44.3999 17.5H45.8999L45.9999 18.7C46.5332 17.8333 47.3999 17.4 48.5999 17.4C49.4665 17.4 50.1999 17.7334 50.7999 18.4C51.4666 19.1334 51.7999 20.1 51.7999 21.3C51.7333 22.5667 51.3666 23.6 50.7 24.4C50.0333 25.0667 49.2333 25.4 48.2999 25.4C47.2999 25.4 46.6 25.0334 46.2 24.3H46.0999V28.3ZM47.9999 18.7C47.5999 18.7 47.2332 18.8333 46.8999 19.1C46.5666 19.4333 46.3333 19.8 46.2 20.2C46.1333 20.4666 46.0999 20.6667 46.0999 20.8V22C46.0999 22.6 46.2665 23.1 46.5999 23.5C46.9999 23.8333 47.4665 24 47.9999 24C48.5999 24 49.0999 23.7667 49.4999 23.3C49.8332 22.7667 49.9999 22.1 49.9999 21.3C49.9999 20.5667 49.8332 19.9667 49.4999 19.5C49.1665 18.9667 48.6665 18.7 47.9999 18.7Z" fill="white"/>
<path fill-rule="evenodd" clip-rule="evenodd" d="M55.0001 28.3H53.3002V20.1C53.3002 19.2333 53.2669 18.3667 53.2002 17.5H54.7002L54.8002 18.7C55.4002 17.8333 56.2668 17.4 57.4001 17.4C58.3335 17.4 59.1002 17.7334 59.7002 18.4C60.3002 19.1334 60.6001 20.1 60.6001 21.3C60.6001 22.5667 60.2335 23.6 59.5001 24.4C58.9001 25.0667 58.1335 25.4 57.2002 25.4C56.2002 25.4 55.4668 25.0334 55.0001 24.3V28.3ZM56.9001 18.7C56.4335 18.7 56.0335 18.8333 55.7002 19.1C55.3669 19.4333 55.1335 19.8 55.0001 20.2C55.0001 20.4666 55.0001 20.6667 55.0001 20.8V22C55.0001 22.6 55.1668 23.1 55.5001 23.5C55.8335 23.8333 56.2668 24 56.8002 24C57.4668 24 57.9668 23.7667 58.3002 23.3C58.6335 22.7667 58.8002 22.1 58.8002 21.3C58.8002 20.5667 58.6335 19.9667 58.3002 19.5C57.9668 18.9667 57.5001 18.7 56.9001 18.7Z" fill="white"/>
<path d="M70.5 22.2C70.5 23.1333 70.1667 23.8667 69.5 24.4C68.8333 25.0667 67.8666 25.4 66.6 25.4C65.4666 25.4 64.5334 25.1666 63.8 24.7L64.2001 23.3C65.0001 23.7667 65.8334 24 66.7001 24C67.3667 24 67.8667 23.8333 68.2001 23.5C68.5334 23.2333 68.7001 22.8667 68.7001 22.4C68.7001 21.9334 68.5667 21.5667 68.3 21.3C68.0334 20.9667 67.5334 20.6667 66.8 20.4C64.9334 19.7334 64 18.7334 64 17.4C64 16.5334 64.3333 15.8 65 15.2C65.6667 14.6666 66.5333 14.4 67.6 14.4C68.6 14.4 69.4 14.5667 70 14.9L69.6 16.3C69 15.9667 68.3333 15.8 67.6 15.8C67 15.8 66.5334 15.9333 66.2001 16.2C65.8667 16.4666 65.7001 16.8 65.7001 17.2C65.7001 17.6 65.8667 17.9667 66.2001 18.3C66.5334 18.5 67.0667 18.7666 67.8 19.1C68.7334 19.4333 69.4 19.8667 69.8 20.4C70.2667 20.8667 70.5 21.4666 70.5 22.2Z" fill="white"/>
<path d="M76.0999 18.8H74.2V22.5C74.2 23.5 74.5333 24 75.2 24C75.5333 24 75.7999 23.9667 75.9999 23.9V25.2C75.6665 25.3333 75.2333 25.4 74.7 25.4C74.0333 25.4 73.4999 25.1666 73.0999 24.7C72.6999 24.3 72.4999 23.6333 72.4999 22.7V18.8H71.3999V17.5H72.4999V16.1L74.2 15.6V17.5H76.0999V18.8Z" fill="white"/>
<path fill-rule="evenodd" clip-rule="evenodd" d="M80.8002 25.4C79.6668 25.4 78.7668 25.0334 78.1001 24.3C77.4334 23.5 77.1001 22.5334 77.1001 21.4C77.1001 20.2 77.4334 19.2333 78.1001 18.5C78.7668 17.7667 79.7001 17.4 80.9001 17.4C82.0335 17.4 82.9334 17.7667 83.6001 18.5C84.2668 19.2333 84.6001 20.1667 84.6001 21.3C84.6001 22.5 84.2668 23.4666 83.6001 24.2C82.8668 25 81.9335 25.4 80.8002 25.4ZM80.8002 18.6C80.1335 18.6 79.6335 18.9 79.3002 19.5C78.9668 20.0333 78.8002 20.6667 78.8002 21.4C78.8002 22.1334 78.9668 22.7333 79.3002 23.2C79.6335 23.8 80.1335 24.1 80.8002 24.1C81.4668 24.1 81.9668 23.8 82.3002 23.2C82.6335 22.6666 82.8002 22.0667 82.8002 21.4C82.8002 20.6667 82.6335 20.0333 82.3002 19.5C81.9668 18.9 81.4668 18.6 80.8002 18.6Z" fill="white"/>
<path d="M90.1 19C89.9666 19 89.8 19 89.6 19C89 19 88.5334 19.2333 88.2001 19.7C87.9334 20.1 87.8 20.6 87.8 21.2V25.2H86.1V19.9C86.1 19.0334 86.0667 18.2333 86 17.5H87.5L87.6 19C87.8 18.4667 88.1 18.0667 88.5 17.8C88.8333 17.5334 89.2334 17.4 89.7001 17.4C89.8334 17.4 89.9666 17.4 90.1 17.4V19Z" fill="white"/>
<path fill-rule="evenodd" clip-rule="evenodd" d="M94.7 25.3C93.5666 25.3 92.6332 24.9667 91.8999 24.3C91.2332 23.5667 90.8999 22.6333 90.8999 21.5C90.8999 20.3 91.2332 19.3333 91.8999 18.6C92.5666 17.8 93.4665 17.4 94.5999 17.4C95.6665 17.4 96.4999 17.8 97.0999 18.6C97.4999 19.2666 97.7 20.0667 97.7 21C97.7 21.3333 97.7 21.6 97.7 21.8H92.5999C92.5999 22.5334 92.8333 23.1 93.2999 23.5C93.7666 23.8333 94.3332 24.0333 94.9999 24.1C95.7332 24.0333 96.4332 23.9 97.0999 23.7L97.2999 24.9C96.5666 25.1667 95.7 25.3 94.7 25.3ZM94.3999 18.5C93.8666 18.5 93.4332 18.7333 93.0999 19.2C92.7665 19.6 92.5999 20.0666 92.5999 20.6H96.0999C96.0999 20.0666 95.9999 19.6 95.7999 19.2C95.4666 18.7333 94.9999 18.5 94.3999 18.5Z" fill="white"/>
<path fill-rule="evenodd" clip-rule="evenodd" d="M36.2001 10.8C35.7334 10.8 35.3333 10.7666 35 10.7V5.59998C35.4 5.53331 35.8667 5.5 36.4 5.5C37.3334 5.5 38.0333 5.69998 38.5 6.09998C39.0333 6.56664 39.3 7.2 39.3 8C39.3 8.93333 39 9.63331 38.4 10.1C37.8667 10.5666 37.1334 10.8 36.2001 10.8ZM36.5 6.09998C36.2333 6.09998 36 6.13328 35.8 6.19995V10.1C35.8667 10.1 36.0667 10.1 36.4 10.1C37 10.1 37.5 9.93331 37.9 9.59998C38.2334 9.26664 38.4 8.73333 38.4 8C38.4 7.4 38.2334 6.93331 37.9 6.59998C37.5667 6.26664 37.1 6.09998 36.5 6.09998Z" fill="white"/>
<path fill-rule="evenodd" clip-rule="evenodd" d="M42.1 10.8C41.5 10.8 41.0334 10.6334 40.7001 10.3C40.4334 9.90005 40.3 9.43336 40.3 8.90002C40.3 8.30002 40.4667 7.83333 40.8 7.5C41.1334 7.1 41.5666 6.90002 42.1 6.90002C42.7 6.90002 43.1667 7.06669 43.5 7.40002C43.7667 7.80002 43.9333 8.26672 44 8.80005C43.9333 9.40005 43.7667 9.90005 43.5 10.3C43.1 10.6334 42.6333 10.8 42.1 10.8ZM42.1 7.5C41.7666 7.5 41.5 7.66667 41.3 8C41.1667 8.2 41.1 8.50002 41.1 8.90002C41.1 9.23336 41.1667 9.53338 41.3 9.80005C41.5 10.0667 41.7666 10.2 42.1 10.2C42.4333 10.2 42.6667 10.0667 42.8 9.80005C43 9.53338 43.1 9.23336 43.1 8.90002C43.1 8.50002 43.0334 8.2 42.9 8C42.7 7.66667 42.4333 7.5 42.1 7.5Z" fill="white"/>
<path d="M50.2001 7L49.1 10.7H48.3L47.8 9.09998C47.6667 8.69998 47.5667 8.30002 47.5 7.90002C47.4333 8.30002 47.3334 8.69998 47.2001 9.09998L46.7001 10.7H45.9L44.8 7H45.6L46.1 8.80005C46.1666 9.20005 46.2334 9.6 46.3 10C46.3667 9.66667 46.4666 9.26672 46.6 8.80005L47.2001 7H47.9L48.4 8.69995C48.5334 9.16662 48.6334 9.6 48.7001 10C48.7667 9.6 48.8667 9.16662 49 8.69995L49.4 7H50.2001Z" fill="white"/>
<path d="M54.6 10.7H53.7001V8.59998C53.7001 7.93331 53.4667 7.59998 53 7.59998C52.7333 7.59998 52.5334 7.70002 52.4 7.90002C52.2 8.03336 52.1 8.23333 52.1 8.5V10.7H51.3V8.09998C51.3 7.76664 51.3 7.4 51.3 7H52L52.1 7.59998C52.1666 7.39998 52.3 7.23331 52.5 7.09998C52.7667 6.96664 53.0334 6.90002 53.3 6.90002C53.6334 6.90002 53.9 6.99995 54.1 7.19995C54.4333 7.53328 54.6 7.96667 54.6 8.5V10.7Z" fill="white"/>
<path d="M56.9001 10.7H56.1001V5.19995H56.9001V10.7Z" fill="white"/>
<path fill-rule="evenodd" clip-rule="evenodd" d="M60.0001 10.8C59.4001 10.8 58.9334 10.6334 58.6001 10.3C58.2668 9.90005 58.1001 9.43336 58.1001 8.90002C58.1001 8.30002 58.2668 7.83333 58.6001 7.5C59.0001 7.1 59.4668 6.90002 60.0001 6.90002C60.5335 6.90002 60.9668 7.06669 61.3002 7.40002C61.6335 7.80002 61.8002 8.26672 61.8002 8.80005C61.8002 9.40005 61.6335 9.90005 61.3002 10.3C60.9668 10.6334 60.5335 10.8 60.0001 10.8ZM60.0001 7.5C59.6668 7.5 59.4002 7.66667 59.2002 8C59.0669 8.2 59.0001 8.50002 59.0001 8.90002C59.0001 9.23336 59.0669 9.53338 59.2002 9.80005C59.4002 10.0667 59.6668 10.2 60.0001 10.2C60.3335 10.2 60.5669 10.0667 60.7002 9.80005C60.9002 9.53338 61.0001 9.23336 61.0001 8.90002C61.0001 8.50002 60.9002 8.2 60.7002 8C60.5669 7.66667 60.3335 7.5 60.0001 7.5Z" fill="white"/>
<path fill-rule="evenodd" clip-rule="evenodd" d="M63.9 10.8C63.5667 10.8 63.3 10.7 63.1 10.5C62.9 10.3 62.8 10.0333 62.8 9.69995C62.8 9.23328 63 8.89995 63.4 8.69995C63.7334 8.43328 64.2667 8.30005 65 8.30005V8.19995C65 7.73328 64.7334 7.5 64.2001 7.5C63.8667 7.5 63.5334 7.60005 63.2001 7.80005L63.1 7.19995C63.4333 6.99995 63.8667 6.90002 64.4 6.90002C65.3334 6.90002 65.8 7.43333 65.8 8.5V9.80005C65.8 10.2 65.8334 10.5 65.9 10.7H65.1V10.3H65C64.8 10.6334 64.4334 10.8 63.9 10.8ZM64.9 8.90002C64.5 8.90002 64.2 8.96664 64 9.09998C63.7333 9.16664 63.6 9.33331 63.6 9.59998C63.6 9.79998 63.6667 9.96664 63.8 10.1C63.9334 10.1666 64.0667 10.2 64.2001 10.2C64.4001 10.2 64.5667 10.1333 64.7001 10C64.9001 9.93333 65 9.79998 65 9.59998C65 9.53331 65 9.5 65 9.5V8.90002C65 8.90002 64.9667 8.90002 64.9 8.90002Z" fill="white"/>
<path fill-rule="evenodd" clip-rule="evenodd" d="M68.6001 10.8C68.2001 10.8 67.8335 10.6334 67.5001 10.3C67.2335 9.96672 67.1001 9.50002 67.1001 8.90002C67.1001 8.30002 67.2335 7.80002 67.5001 7.40002C67.8335 7.06669 68.2335 6.90002 68.7002 6.90002C69.2335 6.90002 69.6002 7.06669 69.8002 7.40002V5.19995H70.6001V9.69995C70.6001 10.1 70.6335 10.4333 70.7002 10.7H69.9001V10.1H69.8002C69.6002 10.5666 69.2001 10.8 68.6001 10.8ZM68.9001 7.5C68.5668 7.56667 68.3335 7.70002 68.2002 7.90002C68.0002 8.16669 67.9001 8.50002 67.9001 8.90002C67.9001 9.23336 67.9668 9.53338 68.1001 9.80005C68.3001 10.0667 68.5668 10.2 68.9001 10.2C69.1668 10.2 69.3668 10.0667 69.5001 9.80005C69.7001 9.66672 69.8002 9.46662 69.8002 9.19995V8.5C69.8002 8.43333 69.8002 8.36672 69.8002 8.30005C69.7335 8.10005 69.6335 7.93338 69.5001 7.80005C69.3001 7.66672 69.1001 7.56667 68.9001 7.5Z" fill="white"/>
<path fill-rule="evenodd" clip-rule="evenodd" d="M75.9001 10.8C75.3668 10.8 74.9334 10.6334 74.6001 10.3C74.2668 9.90005 74.1001 9.43336 74.1001 8.90002C74.1001 8.30002 74.2668 7.83333 74.6001 7.5C74.9334 7.1 75.4001 6.90002 76.0001 6.90002C76.5335 6.90002 76.9668 7.06669 77.3002 7.40002C77.6335 7.80002 77.8002 8.26672 77.8002 8.80005C77.8002 9.40005 77.6335 9.90005 77.3002 10.3C76.9668 10.6334 76.5001 10.8 75.9001 10.8ZM76.0001 7.5C75.6668 7.5 75.4002 7.66667 75.2002 8C75.0669 8.2 75.0001 8.50002 75.0001 8.90002C75.0001 9.23336 75.0669 9.53338 75.2002 9.80005C75.4002 10.0667 75.6668 10.2 76.0001 10.2C76.2668 10.2 76.5002 10.0667 76.7002 9.80005C76.9002 9.53338 77.0001 9.23336 77.0001 8.90002C77.0001 8.50002 76.9002 8.2 76.7002 8C76.5669 7.66667 76.3335 7.5 76.0001 7.5Z" fill="white"/>
<path d="M82.3 10.7H81.5V8.59998C81.5 7.93331 81.2334 7.59998 80.7001 7.59998C80.5001 7.59998 80.3 7.70002 80.1 7.90002C79.9666 8.03336 79.9 8.23333 79.9 8.5V10.7H79.1V8.09998C79.1 7.76664 79.0667 7.4 79 7H79.8V7.59998C79.9334 7.39998 80.1 7.23331 80.3 7.09998C80.5 6.96664 80.7333 6.90002 81 6.90002C81.3333 6.90002 81.6334 6.99995 81.9 7.19995C82.1667 7.53328 82.3 7.96667 82.3 8.5V10.7Z" fill="white"/>
<path d="M88.0001 7.59998H87.0001V9.40002C87.0001 9.86669 87.1668 10.1 87.5001 10.1C87.7001 10.1 87.8335 10.1 87.9001 10.1V10.7C87.7668 10.7666 87.5668 10.8 87.3002 10.8C86.9668 10.8 86.7001 10.7 86.5001 10.5C86.3001 10.3 86.2002 9.96667 86.2002 9.5V7.59998H85.7002V7H86.2002V6.30005L87.0001 6V7H88.0001V7.59998Z" fill="white"/>
<path d="M92.4001 10.7H91.6001V8.59998C91.6001 7.93331 91.3335 7.59998 90.8002 7.59998C90.4002 7.59998 90.1335 7.79995 90.0001 8.19995C90.0001 8.26662 90.0001 8.36667 90.0001 8.5V10.7H89.1001V5.19995H90.0001V7.5C90.2668 7.1 90.6334 6.90002 91.1001 6.90002C91.4334 6.90002 91.7335 6.99995 92.0001 7.19995C92.2668 7.53328 92.4001 7.96667 92.4001 8.5V10.7Z" fill="white"/>
<path fill-rule="evenodd" clip-rule="evenodd" d="M95.5001 10.8C94.9001 10.8 94.4334 10.6334 94.1001 10.3C93.7668 9.96672 93.6001 9.50002 93.6001 8.90002C93.6001 8.36669 93.7668 7.9 94.1001 7.5C94.4334 7.1 94.8668 6.90002 95.4001 6.90002C95.9335 6.90002 96.3669 7.1 96.7002 7.5C96.9002 7.83333 97.0001 8.23328 97.0001 8.69995C97.0001 8.83328 97.0001 8.96664 97.0001 9.09998H94.4001C94.4668 9.43331 94.6002 9.70002 94.8002 9.90002C95.0002 10.1 95.2668 10.2 95.6001 10.2C96.0001 10.2 96.3334 10.1333 96.6001 10L96.8002 10.6C96.4002 10.7333 95.9668 10.8 95.5001 10.8ZM95.4001 7.5C95.0668 7.5 94.8335 7.60005 94.7002 7.80005C94.5669 8.00005 94.4668 8.23333 94.4001 8.5H96.2002C96.2002 8.23333 96.1335 8.00005 96.0001 7.80005C95.8668 7.60005 95.6668 7.5 95.4001 7.5Z" fill="white"/>
</svg>
