<svg width="30" height="30" viewBox="0 0 30 30" fill="none" xmlns="http://www.w3.org/2000/svg">
<path fill-rule="evenodd" clip-rule="evenodd" d="M15 30C11 30 7.20002 28.4 4.40002 25.6C1.60002 22.8 0 19 0 15C0 11 1.60002 7.20002 4.40002 4.40002C7.20002 1.60002 11 0 15 0C19 0 22.8 1.60002 25.6 4.40002C28.5 7.20002 30 11 30 15C30 19 28.5 22.8 25.6 25.6C22.8 28.4 19 30 15 30ZM11 12.3V15.2H12.7001V23.3H16.1V15.2H18.3L18.6 12.3H16.1V10.9C16.1 10.2 16.1001 9.80005 17.2001 9.80005H18.6V7H16.4C13.9 7 12.7001 8.19995 12.7001 10.7V12.3H11Z" fill="black"/>
</svg>
