<svg width="97" height="35" viewBox="0 0 97 35" fill="none" xmlns="http://www.w3.org/2000/svg">
<path d="M95.6 29.3C95.6 32.2 93.5 34 90.6 34H5.70007C2.80007 34 0.5 31.6 0.5 28.7V6.40002C0.5 3.50002 2.80007 1.19995 5.70007 1.19995H90.6C93.5 1.19995 95.6 3.50002 95.6 6.40002V29.3Z" fill="#010101" stroke="white" stroke-width="0.9"/>
<path d="M95.6 29.3C95.6 32.2 93.5 34 90.6 34H5.70007C2.80007 34 0.5 31.6 0.5 28.7V6.40002C0.5 3.50002 2.80007 1.19995 5.70007 1.19995H90.6C93.5 1.19995 95.6 3.50002 95.6 6.40002V29.3Z" fill="#010101" stroke="white" stroke-width="0.9"/>
<path fill-rule="evenodd" clip-rule="evenodd" d="M62.9001 26C62.5001 26 61.7001 26 60.9001 25.4C59.8001 24.6 59.4001 23.2 59.4001 22.2C59.4001 20.9 60.0001 20 60.5001 19.6C61.1001 19 62.0002 18.7 62.8002 18.7C63.3002 18.7 63.9002 18.9 64.3002 19.1C65.1002 19.6 65.3001 20.3 65.4001 20.6L61.9001 22.1L60.7002 22.2C61.1002 24 62.3002 25.2 63.8002 25.2C64.5002 25.2 65.0001 24.9 65.5001 24.7L64.8002 25.4C64.7335 25.4 64.6668 25.4333 64.6001 25.5C64.5334 25.5667 64.4335 25.6333 64.3002 25.7C63.9002 25.9 63.4335 26 62.9001 26ZM62.4001 19.2C61.7001 19.2 60.6001 19.8 60.6001 21.3C60.6001 21.5 60.6335 21.6667 60.7002 21.8C60.7002 21.9334 60.7002 22.0333 60.7002 22.1L63.4001 20.9C63.7001 20.8 63.8002 20.7 63.8002 20.5C63.8002 19.9 63.2001 19.2 62.4001 19.2Z" fill="white"/>
<path d="M58.2002 24.6C58.2002 25.2 58.3002 25.3 58.8002 25.3C59.0668 25.3667 59.3001 25.4 59.5001 25.4L59.0001 25.7H56.4001C56.7001 25.3 56.8002 25.2 56.8002 24.9V24.6V15.7H55.6001L56.7002 15.1H58.8002C58.4002 15.4 58.2002 15.5 58.2002 16.1V24.6Z" fill="white"/>
<path fill-rule="evenodd" clip-rule="evenodd" d="M51.7001 30.4C49.5001 30.4 48.5 29.3 48.5 28.2C48.5 28 48.6001 27 49.7001 26.4C50.6001 25.8 51.8 25.7 52.5 25.7C52.3 25.4 52.1 25.1 52.1 24.7C52.1 24.5 52.1001 24.3 52.2001 24.1C52.0667 24.1 51.9334 24.1 51.8 24.1C50.1 24.1 49.3 22.9 49.3 21.8C49.3 21 49.6001 20.3 50.2001 19.7C51.1001 19 52.2 18.9 52.9 18.9H56L55 19.5H54.1C54.4 19.7 55.2001 20.3 55.2001 21.5C55.2001 22.6 54.5 23.2 53.9 23.6C53.7 23.8 53.5 24 53.5 24.4C53.5 24.7 53.7 24.9 53.9 25L54.4 25.4C55.1 26 55.7001 26.5 55.7001 27.5C55.7001 29 54.3001 30.4 51.7001 30.4ZM52.7001 26.1C52.7001 26.1 51.8 26.1 51.1 26.4C50.8 26.5 49.8 26.8 49.8 27.9C49.8 29 50.9 29.8 52.5 29.8C53.8 29.8 54.7001 29.1 54.7001 28.1C54.7001 27.3 54.1 26.9 53 26.1C52.9 26.1 52.8001 26.1 52.7001 26.1ZM52 19.4C51.6 19.4 51.2 19.6 50.9 19.9C50.7 20.1667 50.6 20.5333 50.6 21C50.6 22 51.1 23.7 52.5 23.7C52.8 23.7 53.2 23.5 53.5 23.3C53.8 22.9 53.8 22.4 53.8 22.2C53.8 21 53.2 19.4 52 19.4Z" fill="white"/>
<path fill-rule="evenodd" clip-rule="evenodd" d="M44.8002 25.9C43.5002 25.9 42.6001 25.3 42.1001 24.8C41.5001 24.1 41.2002 23.3 41.2002 22.4C41.2002 21.4 41.6002 20.5 42.3002 19.8C43.0002 19.1 44.0001 18.7 45.1001 18.7C46.1001 18.7 47.0002 19.1 47.7002 19.8C48.3002 20.5 48.6001 21.4 48.6001 22.3C48.6001 23.2 48.3001 24.1 47.6001 24.8C47.2001 25.3 46.3002 25.9 44.8002 25.9ZM44.7002 19.2C44.2002 19.2 43.7002 19.4 43.3002 19.7C42.7002 20.2 42.6001 20.9 42.6001 21.5C42.6001 22.2 42.8002 23.2 43.2002 24.1C43.6002 24.7 44.2002 25.5 45.2002 25.5C45.8002 25.5 46.4002 25.2 46.7002 24.7C47.0002 24.3 47.2002 23.8 47.2002 23C47.2002 21.8 46.5002 19.2 44.7002 19.2Z" fill="white"/>
<path fill-rule="evenodd" clip-rule="evenodd" d="M36.9001 25.9C35.5001 25.9 34.6002 25.3 34.2002 24.8C33.6002 24.1 33.2002 23.3 33.2002 22.4C33.2002 21.4 33.6002 20.5 34.3002 19.8C35.0002 19.1 36.0001 18.7 37.1001 18.7C38.1001 18.7 39.1002 19.1 39.7002 19.8C40.3002 20.5 40.7002 21.4 40.7002 22.3C40.7002 23.2 40.3002 24.1 39.7002 24.8C39.2002 25.3 38.3001 25.9 36.9001 25.9ZM36.7002 19.2C36.2002 19.2 35.7001 19.4 35.4001 19.7C34.8001 20.2 34.7002 20.9 34.7002 21.5C34.7002 22.2 34.8002 23.2 35.3002 24.1C35.6002 24.7 36.2002 25.5 37.2002 25.5C37.8002 25.5 38.4002 25.2 38.8002 24.7C39.1002 24.3 39.2002 23.8 39.2002 23C39.2002 21.8 38.6002 19.2 36.7002 19.2Z" fill="white"/>
<path d="M32.3002 25.4L30.3002 25.9C29.5002 26 28.8001 26.1 28.0001 26.1C24.1001 26.1 22.6001 23.2 22.6001 21C22.6001 18.3 24.7002 15.7 28.3002 15.7C29.0335 15.7 29.7335 15.8 30.4001 16C31.5001 16.3 32.0002 16.7 32.3002 16.9L31.1001 18L30.6001 18.1L31.0001 17.6C30.5001 17.1 29.6001 16.2 28.0001 16.2C25.8001 16.2 24.1001 17.9 24.1001 20.4C24.1001 23 26.0001 25.5 29.1001 25.5C30.0001 25.5 30.4002 25.4 30.8002 25.2V22.9L28.7002 23L29.9001 22.4H32.8002L32.5001 22.8C32.4001 22.9 32.3002 22.9 32.3002 23C32.3002 23.1 32.3002 23.5 32.3002 23.7V25.4Z" fill="white"/>
<path fill-rule="evenodd" clip-rule="evenodd" d="M69.8002 28.6H69.1001V18.9H69.8002V20C70.4002 19.2 71.3002 18.7 72.3002 18.7C74.2002 18.7 75.4001 20.1 75.4001 22.4C75.4001 23.5 75.1001 24.4 74.5001 25.1C74.0001 25.7 73.2002 26.1 72.3002 26.1C71.3002 26.1 70.4002 25.6 69.8002 24.8V28.6ZM72.1001 19.3C71.2001 19.3 70.3002 20.1 69.8002 20.8V23.9C70.2002 24.5 71.1001 25.4 72.1001 25.4C72.9001 25.4 73.5001 25.1 74.0001 24.5C74.4001 24 74.6001 23.2 74.6001 22.4C74.6001 21.5 74.4001 20.7 74.0001 20.2C73.5001 19.6 72.9001 19.3 72.1001 19.3Z" fill="white"/>
<path d="M76.4001 25.9V16.2H77.2002V25.9H76.4001Z" fill="white"/>
<path d="M85.7002 28C85.8002 28.1 86.1002 28.1 86.3002 28.1C86.7002 28.1 87.1002 27.9 87.3002 27.2L87.9001 26L84.9001 18.9H85.8002L88.3002 25L90.9001 18.9H91.7002L88.1001 27.5C87.7001 28.3667 87.1002 28.8 86.3002 28.8C86.0002 28.8 85.7001 28.7 85.5001 28.7L85.7002 28Z" fill="white"/>
<path fill-rule="evenodd" clip-rule="evenodd" d="M80.7002 26C79.9669 26 79.4001 25.8333 79.0001 25.5C78.6001 25.1 78.4001 24.6 78.4001 24C78.4001 23.3333 78.6669 22.8 79.2002 22.4C79.8002 22.0667 80.5668 21.9 81.5001 21.9H83.3002V21C83.3002 20.4667 83.1335 20.0667 82.8002 19.8C82.4668 19.5334 81.9668 19.4 81.3002 19.4C80.7668 19.4 80.3335 19.5 80.0001 19.7C79.6001 19.9666 79.4001 20.3 79.4001 20.7H78.7002C78.6335 20.1666 78.8668 19.7 79.4001 19.3C79.8668 18.9 80.5335 18.7 81.4001 18.7C82.2001 18.7 82.8668 18.9 83.4001 19.3C83.8668 19.7 84.1001 20.2667 84.1001 21V24.5C84.1001 24.7667 84.1335 25 84.2002 25.2C84.2002 25.4666 84.2335 25.7 84.3002 25.9H83.5001C83.4335 25.7 83.3668 25.5 83.3002 25.3C83.3002 25.1 83.3002 24.9 83.3002 24.7C83.0335 25.1 82.6669 25.4333 82.2002 25.7C81.7002 25.9 81.3002 26 80.7002 26ZM81.5001 22.5C80.8335 22.5 80.3001 22.6334 79.9001 22.9C79.4335 23.2334 79.2002 23.6 79.2002 24C79.2002 24.4 79.3334 24.7333 79.6001 25C79.8668 25.2 80.2668 25.3 80.8002 25.3C81.4002 25.3 81.9001 25.2 82.4001 24.9C82.8668 24.6334 83.1668 24.2667 83.3002 23.8V22.5H81.5001Z" fill="white"/>
<path d="M22.7002 8.19995C22.7002 6.69995 23.8002 5.69995 25.2002 5.69995C26.1002 5.69995 26.7001 6.09995 27.1001 6.69995L26.4001 7.09998C26.1001 6.69998 25.7002 6.40002 25.2002 6.40002C24.2002 6.40002 23.5001 7.19995 23.5001 8.19995C23.5001 9.19995 24.2002 9.90002 25.2002 9.90002C25.6002 9.90002 26.1002 9.7 26.3002 9.5V8.69995H24.9001V8H27.1001V9.80005C26.6001 10.3 26.0002 10.6 25.2002 10.6C23.8002 10.6 22.7002 9.69995 22.7002 8.19995Z" fill="white"/>
<path d="M28.1001 10.5V5.80005H31.4001V6.5H29.0001V7.69995H31.3002V8.5H29.0001V9.80005H31.4001V10.5H28.1001Z" fill="white"/>
<path d="M33.7002 10.5V6.5H32.2002V5.80005H35.9001V6.5H34.5001V10.5H33.7002Z" fill="white"/>
<path d="M38.8003 10.5V5.80005H39.6002V10.5H38.8003Z" fill="white"/>
<path d="M41.9 10.5V6.5H40.5V5.80005H44.2001V6.5H42.8V10.5H41.9Z" fill="white"/>
<path fill-rule="evenodd" clip-rule="evenodd" d="M49.3002 10.6C47.9002 10.6 46.9001 9.59995 46.9001 8.19995C46.9001 6.69995 47.9002 5.69995 49.3002 5.69995C50.7002 5.69995 51.7002 6.69995 51.7002 8.19995C51.7002 9.59995 50.7002 10.6 49.3002 10.6ZM49.3002 6.40002C48.4002 6.40002 47.7002 7.19995 47.7002 8.19995C47.7002 9.19995 48.4002 9.90002 49.3002 9.90002C50.2002 9.90002 50.9001 9.19995 50.9001 8.19995C50.9001 7.19995 50.2002 6.40002 49.3002 6.40002Z" fill="white"/>
<path d="M56.0001 10.5L53.5001 7.09998V10.5H52.7002V5.80005H53.5001L55.9001 9.09998V5.80005H56.8002V10.5H56.0001Z" fill="white"/>
<path d="M12.8 22L5 14.1999C5.26667 14.1333 5.53338 14.1667 5.80005 14.3L15.2001 19.5L12.8 22Z" fill="url(#paint0_linear_5_656)"/>
<path d="M12.8003 22L15.2003 19.5L18.4003 21.3C19.1003 21.7 19.1003 22.3 18.4003 22.7L15.2003 24.4L12.8003 22Z" fill="url(#paint1_linear_5_656)"/>
<path d="M12.8002 22L5.00012 29.8C4.80012 29.7 4.6001 29.4 4.6001 29V15C4.6001 14.6 4.80012 14.3 5.00012 14.2L12.8002 22Z" fill="url(#paint2_linear_5_656)"/>
<path d="M12.8 22L15.2001 24.4L5.80005 29.7C5.46672 29.8333 5.2 29.8667 5 29.8L12.8 22Z" fill="url(#paint3_linear_5_656)"/>
<defs>
<linearGradient id="paint0_linear_5_656" x1="11.1" y1="21.4" x2="8.40005" y2="9.49994" gradientUnits="userSpaceOnUse">
<stop stop-color="#D7E69D"/>
<stop offset="0.4" stop-color="#94C4AA"/>
<stop offset="1" stop-color="#01A4B6"/>
</linearGradient>
<linearGradient id="paint1_linear_5_656" x1="10.8003" y1="13.2" x2="17.7004" y2="25.1" gradientUnits="userSpaceOnUse">
<stop stop-color="#EE2F7C"/>
<stop offset="0.7" stop-color="#F7BD81"/>
<stop offset="1" stop-color="#FEEB74"/>
</linearGradient>
<linearGradient id="paint2_linear_5_656" x1="8.70013" y1="25.9" x2="4.60012" y2="9.59992" gradientUnits="userSpaceOnUse">
<stop stop-color="#89CFBD"/>
<stop offset="0.1" stop-color="#7DBEBB"/>
<stop offset="0.5" stop-color="#457CAC"/>
<stop offset="0.9" stop-color="#1C5AA2"/>
<stop offset="1" stop-color="#084D9F"/>
</linearGradient>
<linearGradient id="paint3_linear_5_656" x1="17.2001" y1="24.8" x2="2.69999" y2="26.8" gradientUnits="userSpaceOnUse">
<stop stop-color="#F04A2B"/>
<stop offset="0.5" stop-color="#B54F6B"/>
<stop offset="0.8" stop-color="#8B5191"/>
<stop offset="1" stop-color="#7851A1"/>
</linearGradient>
</defs>
</svg>
