<svg width="30" height="30" viewBox="0 0 30 30" fill="none" xmlns="http://www.w3.org/2000/svg">
<path fill-rule="evenodd" clip-rule="evenodd" d="M15 30C11 30 7.20002 28.4 4.40002 25.6C1.60002 22.8 0 19 0 15C0 11 1.60002 7.20002 4.40002 4.40002C7.20002 1.60002 11 0 15 0C19 0 22.8 1.60002 25.6 4.40002C28.5 7.20002 30 11 30 15C30 19 28.5 22.8 25.6 25.6C22.8 28.4 19 30 15 30ZM15 7H14.5C12.8 7 12.5001 7 11.7001 7C11.0001 7.1 10.4 7.20002 9.80005 7.40002C9.20005 7.60002 8.80002 7.90005 8.40002 8.30005C7.90002 8.80005 7.70002 9.20005 7.40002 9.80005C7.20002 10.3 7.09998 10.9 7.09998 11.7C6.99998 12.6 7 12.9 7 15C7 17.1 6.99998 17.4 7.09998 18.3C7.09998 19.1 7.20002 19.7 7.40002 20.2C7.70002 20.8 7.90002 21.2 8.40002 21.7C8.80002 22.1 9.20005 22.4 9.80005 22.6C10.4 22.8 11.0001 22.9 11.7001 23C12.6001 23 12.9 23 15 23C17.2 23 17.5 23 18.3 23C19.1 22.9 19.7 22.8 20.3 22.6C20.8 22.4 21.3001 22.1 21.7001 21.7C22.1001 21.2 22.4 20.8 22.6 20.2C22.8 19.7 22.9 19.1 23 18.3C23 17.5 23 17.2 23 15C23 12.8 23 12.5 23 11.7C22.9 10.9 22.8 10.3 22.6 9.80005C22.4 9.20005 22.1001 8.80005 21.7001 8.30005C21.3001 7.90005 20.8 7.60002 20.3 7.40002C19.7 7.20002 19.1 7.1 18.3 7C17.5 7 17.2 7 15 7Z" fill="black"/>
<path fill-rule="evenodd" clip-rule="evenodd" d="M15 21.6C12.9 21.6 12.6 21.5 11.8 21.5C11 21.5 10.6 21.3 10.3 21.2C9.90005 21.1 9.70002 20.9 9.40002 20.6C9.10002 20.4 8.90005 20.1 8.80005 19.7C8.70005 19.4 8.5 19 8.5 18.2C8.5 17.4 8.5 17.1 8.5 15C8.5 12.9 8.5 12.6 8.5 11.8C8.5 11 8.70005 10.6 8.80005 10.3C8.90005 9.90005 9.10002 9.60002 9.40002 9.40002C9.70002 9.10002 9.90005 8.90005 10.3 8.80005C10.6 8.70005 11 8.5 11.8 8.5C12.5 8.5 12.8 8.40002 14.3 8.40002H15C17.2 8.40002 17.4 8.4 18.3 8.5C19 8.5 19.5001 8.70005 19.7001 8.80005C20.1001 8.90005 20.4001 9.10002 20.7001 9.40002C20.9001 9.60002 21.1 9.90005 21.3 10.3C21.4 10.6 21.5 11 21.5 11.8C21.6 12.6 21.6 12.9 21.6 15C21.6 17.1 21.6 17.4 21.5 18.2C21.5 19 21.4 19.4 21.3 19.7C21.1 20.1 20.9001 20.4 20.7001 20.6C20.4001 20.9 20.1001 21.1 19.7001 21.2C19.5001 21.3 19 21.5 18.3 21.5C17.4 21.5 17.2 21.6 15 21.6ZM15 10.9C12.8 10.9 10.9 12.7 10.9 15C10.9 17.3 12.8 19.1 15 19.1C17.3 19.1 19.1 17.3 19.1 15C19.1 12.7 17.3 10.9 15 10.9ZM19.3 9.80005C18.8 9.80005 18.3 10.2 18.3 10.7C18.3 11.3 18.8 11.7 19.3 11.7C19.8 11.7 20.3 11.3 20.3 10.7C20.3 10.2 19.8 9.80005 19.3 9.80005Z" fill="black"/>
<path d="M14.9999 12.3C16.4999 12.3 17.7 13.5 17.7 15C17.7 16.5 16.4999 17.7 14.9999 17.7C13.5999 17.7 12.3999 16.5 12.3999 15C12.3999 13.5 13.5999 12.3 14.9999 12.3Z" fill="black"/>
</svg>
