<svg width="30" height="30" viewBox="0 0 30 30" fill="none" xmlns="http://www.w3.org/2000/svg">
<path fill-rule="evenodd" clip-rule="evenodd" d="M15 30C11 30 7.20002 28.4 4.40002 25.6C1.60002 22.8 0 19 0 15C0 11 1.60002 7.20002 4.40002 4.40002C7.20002 1.60002 11 0 15 0C19 0 22.8 1.60002 25.6 4.40002C28.5 7.20002 30 11 30 15C30 19 28.5 22.8 25.6 25.6C22.8 28.4 19 30 15 30ZM8 13.3C7.9 13.3 8.20002 14.3 8.40002 14.7C8.60002 15.2 9.20005 15.7 9.80005 16L10.3 16.3H9.70007C9.30007 16.3 9.19998 16.3 9.09998 16.4C9.09998 16.4 9.09998 16.4333 9.09998 16.5C9.39998 17.2 10.2 18 11.1 18.3L11.8 18.5L11.2001 18.8C10.4001 19.3 9.40002 19.6 8.40002 19.6C7.90002 19.6 7.5 19.7 7.5 19.7C7.5 19.8 8.8 20.4 9.5 20.6C10.3 20.8666 11.1333 21 12 21C13.6 21 15.2 20.6 16.4 19.9C17.9 19 19.3 17.4 19.9 15.7C20.3 14.9 20.6 13.3 20.6 12.6C20.6 12.1 20.7 12 21.3 11.4C21.6 11.1 21.9 10.7 22 10.6C22.0667 10.5333 22.0667 10.5 22 10.5C21.9 10.5 21.8 10.5 21.6 10.6C21.2 10.7333 20.9334 10.8 20.8 10.8C20.7334 10.8 20.7001 10.8 20.7001 10.8C20.7001 10.7334 20.8 10.6 21 10.4C21.3 10.1 21.7001 9.40005 21.7001 9.30005C21.7001 9.23338 21.7001 9.19995 21.7001 9.19995C21.6001 9.19995 21.5 9.30002 21.4 9.40002C21.2 9.50002 20.7 9.59995 20.4 9.69995L19.9 9.90002L19.3 9.59998C19.1 9.39998 18.7 9.19998 18.5 9.09998C18.2333 9.03331 17.9333 9 17.6 9C17.2 9 16.9 9.09998 16.6 9.09998C15.3 9.59998 14.5 10.8 14.6 12.2V12.7L14.1 12.6C12.1666 12.4 10.5 11.6 9.09998 10.2L8.40002 9.5L8.20007 10C7.80007 11.1 8.10002 12.3 8.90002 13.1C9.03336 13.3 9.09998 13.4333 9.09998 13.5C9.09998 13.5 9.06667 13.5 9 13.5C8.93333 13.5 8.76667 13.4667 8.5 13.4C8.23333 13.3334 8.06667 13.3 8 13.3Z" fill="black"/>
</svg>
