<svg width="416" height="86" viewBox="0 0 416 86" fill="none" xmlns="http://www.w3.org/2000/svg">
<path d="M181.974 15.5H188.274L193.774 23.3L199.374 15.5H205.574L196.974 27.6L207.174 41.7H200.874L193.774 31.9L186.674 41.7H180.474L190.674 27.6L181.974 15.5Z" fill="#B31236"/>
<path fill-rule="evenodd" clip-rule="evenodd" d="M221.274 22.5C223.874 22.5 225.974 23.4334 227.574 25.3C229.308 27.1667 230.174 29.5 230.174 32.3C230.174 35.1 229.341 37.4667 227.674 39.4C226.008 41.2667 223.908 42.2 221.375 42.2C218.708 42.2 216.641 41.2667 215.174 39.4V49.2H209.974L209.875 23H215.174V25.3C216.574 23.4334 218.608 22.5 221.274 22.5ZM219.875 27.1C218.875 27.1 217.941 27.3667 217.074 27.9C216.274 28.4334 215.641 29.1 215.174 29.9V34.8C215.641 35.6 216.274 36.2667 217.074 36.8C217.941 37.3334 218.875 37.6 219.875 37.6C221.341 37.6 222.541 37.1 223.474 36.1C224.408 35.0333 224.875 33.8 224.875 32.4C224.875 30.8667 224.408 29.6 223.474 28.6C222.541 27.6 221.341 27.1 219.875 27.1Z" fill="#B31236"/>
<path d="M239.274 41.7H233.974V23H239.274V26.1C239.808 25.1 240.674 24.2666 241.874 23.6C243.074 22.8666 244.374 22.5 245.774 22.5C246.041 22.5 246.241 22.5 246.374 22.5V27.7C245.908 27.5666 245.374 27.5 244.774 27.5C243.508 27.5 242.374 27.8333 241.374 28.5C240.374 29.1 239.674 29.8667 239.274 30.8V41.7Z" fill="#B31236"/>
<path fill-rule="evenodd" clip-rule="evenodd" d="M258.974 42.1C256.041 42.1 253.574 41.2 251.574 39.4C249.574 37.6 248.574 35.2334 248.574 32.3C248.574 29.5 249.474 27.1667 251.274 25.3C253.074 23.4334 255.408 22.5 258.274 22.5C260.941 22.5 263.108 23.4334 264.774 25.3C266.374 27.2334 267.174 29.5667 267.174 32.3V33.7H253.774C254.041 34.9666 254.741 35.9333 255.874 36.6C257.008 37.2666 258.408 37.6 260.074 37.6C262.141 37.6 264.141 37.0667 266.074 36V40.2C264.408 41.4666 262.041 42.1 258.974 42.1ZM253.774 30.4H261.974C261.908 29.3334 261.541 28.4333 260.874 27.7C260.141 26.9666 259.208 26.6 258.074 26.6C256.874 26.6 255.908 26.9666 255.174 27.7C254.374 28.3666 253.908 29.2667 253.774 30.4Z" fill="#B31236"/>
<path d="M278.074 42.1C274.808 42.1 272.208 41.5334 270.274 40.4V35.7C271.141 36.3 272.274 36.8 273.674 37.2C275.074 37.6 276.474 37.8 277.874 37.8C280.008 37.8 281.074 37.2666 281.074 36.2C281.074 35.7333 280.774 35.3666 280.174 35.1C279.841 34.9 279.508 34.7666 279.174 34.7L277.774 34.4C277.574 34.3334 277.308 34.2666 276.974 34.2C276.641 34.1333 276.408 34.0667 276.274 34C274.074 33.4 272.508 32.6667 271.574 31.8C270.708 31 270.274 29.8 270.274 28.2C270.274 26.4 270.974 25 272.374 24C273.841 23 275.874 22.4667 278.474 22.4C281.341 22.4 283.674 23 285.474 24.2V28.7C283.274 27.3666 281.008 26.7 278.674 26.7C276.674 26.7 275.674 27.2 275.674 28.2C275.674 28.4 275.741 28.6 275.874 28.8C276.008 28.9334 276.108 29.0333 276.174 29.1C276.308 29.1666 276.508 29.3 276.774 29.5C276.908 29.5 277.174 29.5666 277.574 29.7C277.974 29.8333 278.241 29.9 278.374 29.9L280.374 30.3C282.441 30.8334 283.974 31.5667 284.974 32.5C285.974 33.4333 286.474 34.7 286.474 36.3C286.474 38.0334 285.708 39.4333 284.174 40.5C282.641 41.5667 280.608 42.1 278.074 42.1Z" fill="#B31236"/>
<path d="M297.274 42.1C293.941 42.1 291.308 41.5 289.375 40.3V35.7C290.241 36.3 291.374 36.8 292.774 37.2C294.174 37.6 295.574 37.8 296.974 37.8C299.174 37.8 300.274 37.2666 300.274 36.2C300.274 35.7333 299.941 35.3333 299.274 35C298.941 34.8667 298.608 34.7666 298.274 34.7L296.974 34.4C296.774 34.3334 296.508 34.2666 296.174 34.2C295.774 34.0666 295.541 34 295.474 34C293.208 33.4 291.641 32.6667 290.774 31.8C289.841 31 289.375 29.8 289.375 28.2C289.375 26.4 290.108 25 291.574 24C293.041 22.9333 295.041 22.4 297.574 22.4C300.441 22.4 302.774 22.9666 304.574 24.1V28.6C302.374 27.3333 300.108 26.7 297.774 26.7C295.841 26.7 294.875 27.2 294.875 28.2C294.875 28.4 294.908 28.5666 294.974 28.7C295.108 28.9 295.241 29.0333 295.375 29.1C295.441 29.1666 295.608 29.2667 295.875 29.4C296.008 29.4667 296.274 29.5666 296.674 29.7C297.074 29.7666 297.341 29.8334 297.474 29.9L299.474 30.3C301.541 30.7667 303.074 31.4667 304.074 32.4C305.074 33.3334 305.574 34.6 305.574 36.2C305.574 38 304.808 39.4333 303.274 40.5C301.741 41.5667 299.741 42.1 297.274 42.1Z" fill="#B31236"/>
<path d="M327.974 42.1C324.041 42.1 320.741 41.1667 318.074 39.3V33.7C319.141 34.6333 320.574 35.4333 322.374 36.1C324.241 36.8333 326.041 37.2 327.774 37.2C329.241 37.1333 330.441 36.8334 331.374 36.3C332.374 35.7667 332.874 35.0333 332.874 34.1C332.874 33.1 332.408 32.3667 331.474 31.9C331.141 31.7 330.641 31.5 329.974 31.3L329.074 31L326.974 30.3L325.074 29.7C324.808 29.6333 324.208 29.4333 323.274 29.1C322.541 28.7666 321.974 28.5 321.574 28.3C320.308 27.3667 319.508 26.6 319.174 26C318.574 24.8 318.274 23.5667 318.274 22.3C318.208 20.0334 319.074 18.2334 320.874 16.9C322.674 15.5 325.074 14.8 328.074 14.8C331.141 14.8 334.008 15.5333 336.674 17V22.2C334.008 20.6 331.174 19.8 328.174 19.8C325.241 19.8 323.774 20.6667 323.774 22.4C323.774 23.1334 324.208 23.7333 325.074 24.2C325.674 24.4666 326.408 24.7 327.274 24.9C328.408 25.2334 329.341 25.5334 330.074 25.8C332.274 26.4667 334.174 27.3667 335.774 28.5C337.508 29.7 338.374 31.5333 338.374 34C338.441 36.4667 337.474 38.4334 335.474 39.9C333.474 41.3667 330.974 42.1 327.974 42.1Z" fill="#B31236"/>
<path d="M343.874 35.7V27.3H340.174V22.9H343.874V17.7H349.074V22.9H354.474V27.3H349.174V34.7C349.174 35.6333 349.374 36.3 349.774 36.7C350.174 37.1 350.808 37.3 351.674 37.3C352.608 37.3 353.508 37.0666 354.374 36.6V41C353.308 41.6667 351.841 42 349.974 42C345.908 42 343.874 39.9 343.874 35.7Z" fill="#B31236"/>
<path fill-rule="evenodd" clip-rule="evenodd" d="M357.375 32.2C357.375 29.4 358.341 27.0666 360.274 25.2C362.141 23.3333 364.608 22.4 367.674 22.4C370.741 22.4 373.241 23.3333 375.174 25.2C377.108 27.0666 378.074 29.4 378.074 32.2C378.074 35 377.108 37.3333 375.174 39.2C373.241 41.0666 370.741 42 367.674 42C364.674 42 362.208 41.0666 360.274 39.2C358.341 37.3333 357.375 35 357.375 32.2ZM362.574 32.2C362.574 33.6666 363.041 34.9 363.974 35.9C364.974 36.9 366.208 37.4 367.674 37.4C369.208 37.4 370.441 36.9 371.375 35.9C372.375 34.9 372.875 33.6666 372.875 32.2C372.875 30.6666 372.375 29.4333 371.375 28.5C370.441 27.5 369.208 27 367.674 27C366.208 27 364.974 27.5 363.974 28.5C363.041 29.4333 362.574 30.6666 362.574 32.2Z" fill="#B31236"/>
<path d="M387.174 41.5H381.974L381.875 22.8H387.174V26C387.774 25 388.641 24.1334 389.774 23.4C391.041 22.6667 392.341 22.3 393.674 22.3C394.008 22.3 394.208 22.3334 394.274 22.4V27.5C393.808 27.3667 393.274 27.3 392.674 27.3C391.474 27.3667 390.341 27.7 389.274 28.3C388.274 28.9667 387.574 29.7333 387.174 30.6V41.5Z" fill="#B31236"/>
<path fill-rule="evenodd" clip-rule="evenodd" d="M406.874 42C403.941 42 401.474 41.1 399.474 39.3C397.474 37.5 396.474 35.1 396.474 32.1C396.474 29.3666 397.374 27.0666 399.174 25.2C400.974 23.2666 403.308 22.3 406.174 22.3C408.908 22.3 411.074 23.2666 412.674 25.2C414.341 27.1333 415.174 29.4666 415.174 32.2V33.6H401.774C402.041 34.8666 402.708 35.8333 403.774 36.5C404.908 37.1667 406.308 37.5 407.974 37.5C410.041 37.5 412.041 36.9334 413.974 35.8V40.1C412.308 41.3666 409.941 42 406.874 42ZM401.774 30.2H409.974C409.908 29.1333 409.508 28.2333 408.774 27.5C408.108 26.8333 407.174 26.5 405.974 26.5C404.841 26.5 403.874 26.8333 403.074 27.5C402.274 28.1667 401.841 29.0666 401.774 30.2Z" fill="#B31236"/>
<path d="M227.874 65.5C227.874 67.5667 227.341 69.0667 226.274 70C225.341 70.8667 223.774 71.3 221.574 71.3V68.7C223.641 68.7 224.674 67.7 224.674 65.7V57.3H227.874V65.5Z" fill="#B31236"/>
<path fill-rule="evenodd" clip-rule="evenodd" d="M243.674 67.5H240.674C240.341 70.0333 238.607 71.3 235.474 71.3H235.174V68.8H235.474C236.674 68.7334 237.407 68.2667 237.674 67.4C237.407 67.4667 236.741 67.5 235.674 67.5C232.674 67.5 230.574 65.4 230.574 62.4C230.474 59.3 232.674 57.2 235.674 57.2C238.574 57.2 240.774 59.4 240.774 62.4V64.5H243.674V67.5ZM237.574 64.4V62.2C237.574 60.9 236.774 60 235.574 60C234.374 60 233.774 61 233.774 62.2C233.774 63.5 234.574 64.5 235.674 64.5L237.574 64.4Z" fill="#B31236"/>
<path d="M245.374 55.5H242.574V52.9H245.374V55.5ZM253.274 67.5H243.074V64.5H245.074C246.208 64.5 246.774 63.7667 246.774 62.3V57.2H249.974V62.2C249.974 63 249.841 63.7667 249.574 64.5H253.274V67.5ZM249.674 55.4H246.874V52.8H249.674V55.4Z" fill="#B31236"/>
<path d="M252.374 67.5V64.5H255.174C255.908 64.5 256.408 64.1667 256.674 63.5C256.741 63.3 256.774 62.9 256.774 62.3V57.2H259.974V62.2C259.974 63 259.874 63.7667 259.674 64.5H261.674C262.741 64.5 263.274 63.8 263.274 62.4V57.2H266.474V62.2C266.474 63 266.341 63.7667 266.074 64.5H268.074C269.141 64.5 269.674 63.8 269.674 62.4V57.2H272.874V62.1C272.874 63.9 272.341 65.3 271.274 66.3C270.341 67.1 269.308 67.5 268.174 67.5H252.374Z" fill="#B31236"/>
<path d="M310.074 62.1C310.074 65.2 307.974 67.5 305.374 67.5H296.174C294.774 70 292.674 71.3 289.974 71.3C285.974 71.3 282.774 67.9 282.774 63.5V57.2H285.974V63.2C285.974 66.2 287.474 68.3 289.974 68.3C292.474 68.3 293.974 66.2 293.974 63.2V57.2H297.174V63.5C297.174 63.8333 297.141 64.1334 297.074 64.4H298.774C299.841 64.4 300.374 63.7334 300.374 62.4V57.2H303.574V62.1C303.574 62.9666 303.441 63.7334 303.174 64.4H305.274C306.341 64.4 306.874 63.7334 306.874 62.4V57.2H310.074V62.1Z" fill="#B31236"/>
<path d="M322.274 67.5H318.774C318.241 69.9667 316.174 71.2 312.574 71.2V68.6C314.641 68.6 315.674 67.6 315.674 65.6V57.2H318.874V64.4H322.274V67.5Z" fill="#B31236"/>
<path d="M331.774 67.4L321.574 67.5V64.4H323.574C324.708 64.4 325.274 63.6666 325.274 62.2V57.2H328.474V62.1C328.474 62.9666 328.341 63.7334 328.074 64.4H331.774V67.4ZM328.174 71.2H325.274V68.5H328.174V71.2Z" fill="#B31236"/>
<path d="M354.674 67.4H331.274V64.4H333.674C334.774 64.4 335.274 63.8 335.274 62.2V57.1H338.474V62.1C338.474 62.9666 338.374 63.7334 338.174 64.4H340.174C341.241 64.4 341.774 63.7 341.774 62.3V57.1H344.974V62.1C344.974 62.9666 344.841 63.7334 344.574 64.4H346.574C347.641 64.4 348.174 63.7 348.174 62.3V57.1H351.374V62.1C351.374 62.9 351.241 63.6667 350.974 64.4H354.674V67.4Z" fill="#B31236"/>
<path d="M369.974 67.4H353.374V64.4H366.474C366.174 61.9 364.274 60 361.874 60H356.174L360.674 52.8H364.474L361.574 57.1H363.374C367.674 57.5 369.974 60.9 369.974 66.2V67.4Z" fill="#B31236"/>
<path d="M375.974 67.4H372.774V52.7H375.974V67.4Z" fill="#B31236"/>
<path d="M127.874 86C122.274 86 116.674 85.9 111.074 86C105.774 86 101.674 83.7999 98.8745 79.2C86.1744 59 73.5745 38.9 60.8745 18.7C59.5745 16.6 57.8744 15.6 55.2744 15.6C48.2744 15.6 41.1745 15.6 34.0745 15.6C33.3745 15.6 33.0745 15.4 33.0745 14.7C33.1411 10.1 33.1411 5.53333 33.0745 1C33.0745 0.2 33.3745 0 34.0745 0C42.7745 0 51.4745 0 60.0745 0C64.9745 0.1 68.7745 2.20002 71.4745 6.40002C84.2745 26.8 97.1078 47.2333 109.974 67.7C111.074 69.5 112.674 70.4 114.874 70.4C123.474 70.4 132.108 70.4 140.774 70.4C143.074 70.4 144.674 69.4 145.774 67.5C150.108 60.0333 154.408 52.5666 158.674 45.1C158.974 44.4 159.274 44.2999 159.974 44.7C163.908 47.0333 167.874 49.3333 171.874 51.6C172.474 51.9 172.474 52.2 172.174 52.7C167.108 61.5 162.041 70.3 156.974 79.1C154.374 83.7 150.374 85.9 145.074 86C139.374 86 133.574 86 127.874 86Z" fill="#FE9752"/>
<path d="M74.8744 47.9001C77.8744 52.7001 80.8744 57.4 83.7744 62.1C83.9744 62.4 83.9744 62.6001 83.7744 62.9001C80.0744 68.8001 76.4744 74.7 72.6744 80.5C70.2744 84.1 66.6744 85.9001 62.3744 85.9001C50.4411 86.0334 38.5411 86.0334 26.6744 85.9001C21.9744 85.9001 18.1744 83.8 15.7744 79.7C10.4744 70.7 5.37444 61.6 0.17444 52.6C-0.12556 52.1 -0.0255787 51.9 0.374421 51.7C4.50775 49.3 8.60777 46.9 12.6744 44.5C13.3744 44.1 13.4744 44.5001 13.6744 44.9001C17.0744 50.8334 20.4411 56.7333 23.7744 62.6C24.7744 64.2 25.7411 65.8334 26.6744 67.5C27.7411 69.4334 29.3744 70.4001 31.5744 70.4001C40.2411 70.4001 48.8744 70.4001 57.4744 70.4001C59.6744 70.4001 61.3744 69.5 62.4744 67.6C66.4078 61.3333 70.3411 55.0667 74.2744 48.8001C74.4744 48.6001 74.6744 48.3001 74.8744 47.9001Z" fill="#B31336"/>
<path d="M97.4745 41C95.0745 37.1 92.6744 33.4 90.2744 29.6C89.7744 28.7 89.1745 27.8 88.6745 26.9C88.3745 26.6 88.3745 26.3 88.6745 26C92.8745 19.2 97.0744 12.5 101.374 5.80005C103.774 2.00005 107.574 0.1 112.074 0C120.874 0 129.674 0 138.474 0C139.174 0 139.274 0.200049 139.274 0.800049C139.274 5.46672 139.274 10.1334 139.274 14.8C139.274 15.5 139.074 15.6 138.374 15.6C131.174 15.6 123.974 15.6 116.774 15.6C114.574 15.6 112.874 16.5 111.674 18.4C107.141 25.6667 102.608 32.9333 98.0745 40.2C97.8745 40.4 97.7745 40.7 97.4745 41Z" fill="#B31336"/>
</svg>
