<svg width="237" height="49" viewBox="0 0 237 49" fill="none" xmlns="http://www.w3.org/2000/svg">
<path d="M103.709 8.79999H107.309L110.409 13.3L113.609 8.79999H117.109L112.209 15.7L118.009 23.8H114.509L110.409 18.2L106.409 23.8H102.809L108.609 15.7L103.709 8.79999Z" fill="#B31236"/>
<path fill-rule="evenodd" clip-rule="evenodd" d="M126.109 12.8C127.576 12.8 128.776 13.3333 129.709 14.4C130.642 15.4667 131.109 16.8 131.109 18.4C131.109 20 130.642 21.3333 129.709 22.4C128.776 23.4667 127.576 24 126.109 24C124.642 24 123.476 23.5 122.609 22.5V28H119.609V13.1H122.609V14.4C123.409 13.3333 124.576 12.8 126.109 12.8ZM125.309 15.4C124.709 15.4667 124.176 15.6333 123.709 15.9C123.242 16.1667 122.876 16.5667 122.609 17.1V19.8C122.876 20.2667 123.242 20.6667 123.709 21C124.176 21.2667 124.709 21.4 125.309 21.4C126.176 21.4 126.842 21.1 127.309 20.5C127.842 19.9667 128.109 19.2667 128.109 18.4C128.109 17.6 127.842 16.9 127.309 16.3C126.776 15.7 126.109 15.4 125.309 15.4Z" fill="#B31236"/>
<path d="M136.309 23.7H133.309V13.1H136.309V14.9C136.642 14.3 137.142 13.8 137.809 13.4C138.542 13 139.276 12.8 140.009 12.8C140.209 12.8 140.342 12.8 140.409 12.8V15.8C140.142 15.7333 139.842 15.7 139.509 15.7C138.776 15.7 138.109 15.8667 137.509 16.2C136.976 16.6 136.576 17.0333 136.309 17.5V23.7Z" fill="#B31236"/>
<path fill-rule="evenodd" clip-rule="evenodd" d="M147.509 24C145.842 24 144.442 23.5 143.309 22.5C142.176 21.4333 141.609 20.0667 141.609 18.4C141.609 16.8 142.142 15.4667 143.209 14.4C144.209 13.3333 145.542 12.8 147.209 12.8C148.742 12.8 149.976 13.3333 150.909 14.4C151.842 15.5333 152.309 16.8667 152.309 18.4V19.2H144.609C144.809 19.9333 145.209 20.5 145.809 20.9C146.476 21.2333 147.276 21.4 148.209 21.4C149.409 21.4 150.542 21.1 151.609 20.5V22.9C150.676 23.6333 149.309 24 147.509 24ZM144.609 17.3H149.309C149.242 16.7 149.009 16.2 148.609 15.8C148.209 15.4 147.676 15.2 147.009 15.2C146.342 15.2 145.809 15.4 145.409 15.8C144.942 16.1333 144.676 16.6333 144.609 17.3Z" fill="#B31236"/>
<path d="M158.509 24C156.576 24 155.076 23.6667 154.009 23V20.3C154.542 20.6333 155.176 20.9333 155.909 21.2C156.709 21.4 157.509 21.5 158.309 21.5C159.576 21.5 160.209 21.2 160.209 20.6C160.209 20.3333 160.009 20.1333 159.609 20C159.476 19.9333 159.309 19.8667 159.109 19.8L158.309 19.6C158.176 19.6 158.009 19.5667 157.809 19.5C157.609 19.4333 157.476 19.4 157.409 19.4C156.142 19.0667 155.276 18.6333 154.809 18.1C154.276 17.6333 154.009 16.9667 154.009 16.1C154.009 15.0333 154.409 14.2333 155.209 13.7C156.076 13.1 157.242 12.8 158.709 12.8C160.309 12.8 161.642 13.1333 162.709 13.8V16.3C161.442 15.5667 160.142 15.2 158.809 15.2C157.676 15.2 157.109 15.5 157.109 16.1C157.109 16.1667 157.142 16.2667 157.209 16.4C157.276 16.4667 157.342 16.5333 157.409 16.6C157.476 16.6667 157.576 16.7333 157.709 16.8C157.776 16.8 157.942 16.8333 158.209 16.9C158.409 16.9667 158.542 17.0333 158.609 17.1L159.709 17.3C160.909 17.5667 161.809 17.9667 162.409 18.5C162.942 19.0333 163.209 19.7667 163.209 20.7C163.209 21.7 162.776 22.5 161.909 23.1C161.042 23.7 159.909 24 158.509 24Z" fill="#B31236"/>
<path d="M169.409 24C167.476 24 165.976 23.6667 164.909 23V20.3C165.443 20.6333 166.076 20.9333 166.809 21.2C167.609 21.4 168.409 21.5 169.209 21.5C170.476 21.5 171.109 21.2 171.109 20.6C171.109 20.3333 170.909 20.1333 170.509 20C170.376 19.8667 170.209 19.8 170.009 19.8L169.209 19.6C169.076 19.5333 168.909 19.5 168.709 19.5C168.509 19.4333 168.376 19.4 168.309 19.4C167.043 19 166.176 18.5667 165.709 18.1C165.176 17.6333 164.909 16.9333 164.909 16C164.909 15 165.309 14.2333 166.109 13.7C166.976 13.1 168.143 12.8 169.609 12.8C171.209 12.8 172.543 13.1333 173.609 13.8V16.3C172.343 15.5667 171.043 15.2 169.709 15.2C168.576 15.2 168.009 15.5 168.009 16.1C168.009 16.1667 168.043 16.2667 168.109 16.4C168.176 16.4667 168.243 16.5333 168.309 16.6C168.376 16.6 168.476 16.6667 168.609 16.8C168.676 16.8 168.843 16.8333 169.109 16.9C169.309 16.9667 169.443 17 169.509 17L170.609 17.3C171.809 17.5667 172.709 17.9667 173.309 18.5C173.843 19.0333 174.109 19.7333 174.109 20.6C174.109 21.6 173.676 22.4333 172.809 23.1C171.943 23.7 170.809 24 169.409 24Z" fill="#B31236"/>
<path d="M186.909 24C184.642 24 182.742 23.4667 181.209 22.4V19.2C181.876 19.7333 182.709 20.2 183.709 20.6C184.776 21 185.809 21.2 186.809 21.2C187.609 21.2 188.276 21.0333 188.809 20.7C189.409 20.3667 189.709 19.9333 189.709 19.4C189.709 18.8667 189.442 18.4667 188.909 18.2C188.709 18.0667 188.409 17.9333 188.009 17.8L187.509 17.6L186.309 17.3L185.209 16.9C185.076 16.9 184.742 16.8 184.209 16.6C183.809 16.4 183.509 16.2333 183.309 16.1C182.509 15.5667 182.009 15.1333 181.809 14.8C181.476 14.1333 181.309 13.4333 181.309 12.7C181.309 11.3667 181.809 10.3333 182.809 9.6C183.876 8.86667 185.276 8.5 187.009 8.5C188.742 8.43334 190.342 8.83334 191.809 9.7V12.7C190.342 11.7667 188.742 11.3 187.009 11.3C185.342 11.3 184.509 11.7667 184.509 12.7C184.509 13.1667 184.776 13.5333 185.309 13.8C185.576 13.9333 185.976 14.0667 186.509 14.2C187.176 14.4 187.709 14.5667 188.109 14.7C189.376 15.1 190.442 15.6 191.309 16.2C192.309 16.9333 192.809 17.9667 192.809 19.3C192.809 20.7667 192.276 21.9 191.209 22.7C190.076 23.5667 188.642 24 186.909 24Z" fill="#B31236"/>
<path d="M195.909 20.4V15.5H193.809V13H195.909V10.1H198.909V13H202.009V15.5H198.909V19.8C198.909 20.3333 199.042 20.7 199.309 20.9C199.509 21.1666 199.876 21.3 200.409 21.3C200.942 21.3 201.442 21.1666 201.909 20.9V23.4C201.309 23.7333 200.476 23.9 199.409 23.9C197.076 23.9666 195.909 22.8 195.909 20.4Z" fill="#B31236"/>
<path fill-rule="evenodd" clip-rule="evenodd" d="M203.609 18.3C203.609 16.7667 204.176 15.4667 205.309 14.4C206.376 13.2667 207.776 12.7 209.509 12.7C211.242 12.7 212.676 13.2667 213.809 14.4C214.876 15.4667 215.409 16.7667 215.409 18.3C215.409 19.9 214.876 21.2333 213.809 22.3C212.676 23.3667 211.242 23.9 209.509 23.9C207.776 23.9 206.376 23.3667 205.309 22.3C204.176 21.2333 203.609 19.9 203.609 18.3ZM206.609 18.3C206.609 19.1667 206.876 19.9 207.409 20.5C207.942 21.0333 208.642 21.3 209.509 21.3C210.376 21.3 211.076 21.0333 211.609 20.5C212.209 19.9 212.509 19.1667 212.509 18.3C212.509 17.4333 212.209 16.7333 211.609 16.2C211.076 15.6667 210.376 15.4 209.509 15.4C208.642 15.4 207.942 15.6667 207.409 16.2C206.876 16.8 206.609 17.5 206.609 18.3Z" fill="#B31236"/>
<path d="M220.609 23.7H217.609V13H220.609V14.8C220.942 14.2 221.442 13.7 222.109 13.3C222.842 12.9 223.576 12.7 224.309 12.7C224.509 12.7 224.642 12.7 224.709 12.7V15.7C224.442 15.6333 224.109 15.6 223.709 15.6C223.042 15.6 222.409 15.7667 221.809 16.1C221.276 16.5 220.876 16.9333 220.609 17.4V23.7Z" fill="#B31236"/>
<path fill-rule="evenodd" clip-rule="evenodd" d="M231.809 23.9C230.143 23.9 228.743 23.4 227.609 22.4C226.476 21.4 225.909 20.0333 225.909 18.3C225.909 16.7 226.443 15.3667 227.509 14.3C228.509 13.2333 229.843 12.7 231.509 12.7C233.043 12.7 234.276 13.2667 235.209 14.4C236.076 15.4667 236.509 16.7667 236.509 18.3V19.1H228.909C229.043 19.8333 229.443 20.4 230.109 20.8C230.709 21.2 231.509 21.4 232.509 21.4C233.643 21.4 234.776 21.0667 235.909 20.4V22.8C234.976 23.5333 233.609 23.9 231.809 23.9ZM228.909 17.2H233.609C233.543 16.6 233.309 16.1 232.909 15.7C232.509 15.3 231.976 15.1 231.309 15.1C230.643 15.1 230.109 15.3 229.709 15.7C229.243 16.1 228.976 16.6 228.909 17.2Z" fill="#B31236"/>
<path d="M129.909 37.3C129.909 38.5 129.609 39.3666 129.009 39.9C128.409 40.3666 127.476 40.6 126.209 40.6V39.2C127.409 39.2 128.009 38.6333 128.009 37.5V32.6H129.909V37.3Z" fill="#B31236"/>
<path fill-rule="evenodd" clip-rule="evenodd" d="M138.909 38.5H137.209C136.942 39.9 135.942 40.6 134.209 40.6H134.009V39.2H134.209C134.876 39.2 135.276 38.9333 135.409 38.4C135.276 38.4666 134.909 38.5 134.309 38.5C132.609 38.5 131.409 37.3 131.409 35.5C131.409 33.8 132.609 32.6 134.309 32.6C136.009 32.6 137.209 33.8 137.209 35.6V36.7H138.909V38.5ZM135.409 36.8V35.6C135.409 34.8 134.909 34.3 134.209 34.3C133.609 34.3 133.209 34.8 133.209 35.5C133.209 36.3 133.609 36.8 134.309 36.8H135.409Z" fill="#B31236"/>
<path d="M139.809 31.6H138.209V30.1H139.809V31.6ZM144.309 38.5H138.509V36.8H139.709C140.309 36.8 140.609 36.3666 140.609 35.5V32.6H142.409V35.4C142.409 35.9333 142.342 36.4 142.209 36.8L144.309 36.7V38.5ZM142.309 31.7H140.709V30.2H142.309V31.7Z" fill="#B31236"/>
<path d="M143.809 38.5V36.7H145.409C145.809 36.7 146.109 36.5333 146.309 36.2C146.309 36.0666 146.309 35.8333 146.309 35.5V32.6H148.209V35.4C148.209 35.8666 148.109 36.3 147.909 36.7H149.109C149.709 36.7 150.009 36.3333 150.009 35.6V32.6H151.809V35.4C151.809 35.8666 151.742 36.3 151.609 36.7H152.809C153.409 36.7 153.709 36.3333 153.709 35.6V32.6H155.509V35.4C155.509 36.4 155.209 37.2 154.609 37.8C154.076 38.2666 153.476 38.5 152.809 38.5H143.809Z" fill="#B31236"/>
<path d="M176.709 35.4C176.709 37.2 175.509 38.4 174.009 38.4H168.809C167.942 39.8666 166.742 40.6 165.209 40.6C163.009 40.6 161.109 38.7 161.109 36.2V32.6H162.909L163.009 36C163.009 37.7 163.809 38.9 165.209 38.9C166.609 38.9 167.509 37.7 167.509 36V32.6H169.309V36.2C169.309 36.4 169.309 36.5666 169.309 36.7H170.309C170.909 36.7 171.209 36.3 171.209 35.5V32.6H173.009V35.4C173.009 35.8666 172.942 36.3 172.809 36.7H173.909C174.509 36.7 174.809 36.3 174.809 35.5V32.6H176.709V35.4Z" fill="#B31236"/>
<path d="M183.609 38.4H181.609C181.342 39.8666 180.176 40.6 178.109 40.6V39.1C179.309 39.1 179.909 38.5333 179.909 37.4V32.6H181.709V36.7H183.609V38.4Z" fill="#B31236"/>
<path d="M189.109 38.4H183.209V36.7H184.409C185.009 36.7 185.309 36.3 185.309 35.5V32.6H187.109V35.4C187.109 35.8666 187.042 36.3 186.909 36.7H189.109V38.4ZM187.009 40.5H185.409V39H187.009V40.5Z" fill="#B31236"/>
<path d="M202.109 38.4H188.809V36.7H190.109C190.709 36.7 191.109 36.4 191.109 35.5V32.6H192.909V35.4C192.909 35.8667 192.842 36.3 192.709 36.7H193.809C194.409 36.7 194.709 36.3 194.709 35.5V32.6H196.509L196.609 35.4C196.542 35.8667 196.442 36.3 196.309 36.7H197.509C198.109 36.7 198.409 36.3 198.409 35.5V32.6L200.209 32.5V35.4C200.209 35.8667 200.142 36.3 200.009 36.7H202.109V38.4Z" fill="#B31236"/>
<path d="M210.809 38.4H201.409V36.7H208.809C208.609 35.3 207.609 34.2 206.209 34.2H202.909L205.509 30.1H207.709L206.009 32.5H207.009C209.509 32.8 210.809 34.7 210.809 37.7V38.4Z" fill="#B31236"/>
<path d="M214.209 38.4H212.409V30H214.209V38.4Z" fill="#B31236"/>
<path d="M72.9089 49C69.7089 49 66.5089 49 63.3089 49C60.3089 49 58.0089 47.7 56.3089 45.1C49.1089 33.6 41.9089 22.2 34.7089 10.7C34.0089 9.5 33.0089 8.9 31.5089 8.9C27.5089 8.9 23.5089 8.9 19.4089 8.9C19.0089 8.9 18.9089 8.8 18.9089 8.4C18.9089 5.8 18.9089 3.2 18.9089 0.6C18.9089 0.1 19.0089 0 19.4089 0C24.4089 0 29.3089 0 34.3089 0C37.0089 0 39.2089 1.3 40.7089 3.6C48.0423 15.2667 55.3756 26.9333 62.7089 38.6C63.3089 39.6 64.2089 40.1 65.4089 40.1C70.3423 40.1 75.2756 40.1 80.209 40.1C81.509 40.1 82.4089 39.5 83.1089 38.4C85.5756 34.2 88.0089 29.9667 90.4089 25.7C90.6089 25.3 90.809 25.2 91.209 25.5C93.409 26.8333 95.6756 28.1333 98.0089 29.4C98.3089 29.6 98.3089 29.7 98.1089 30C95.2423 35 92.3756 40 89.5089 45C88.0089 47.7 85.709 49 82.709 49C79.4423 49 76.1756 49 72.9089 49Z" fill="#FE9752"/>
<path d="M42.709 27.3C44.409 30 46.109 32.7 47.809 35.4C47.909 35.5 47.909 35.7 47.809 35.8C45.709 39.2 43.609 42.6 41.409 45.9C40.109 47.9 38.009 48.9 35.609 49C28.809 49 22.009 49 15.209 49C12.509 48.9 10.409 47.7 9.00901 45.4C6.00901 40.3 3.10902 35.1 0.10902 30C-0.09098 29.7 0.00901082 29.6 0.209011 29.4C2.54234 28.0666 4.87568 26.7333 7.20901 25.4C7.60901 25.2 7.70902 25.4 7.80902 25.6C9.74235 28.9333 11.6757 32.3 13.609 35.7C14.1424 36.6333 14.6757 37.5666 15.209 38.5C15.809 39.5666 16.7423 40.1 18.009 40.1C22.9423 40.1 27.8757 40.1 32.809 40.1C34.009 40.1 34.9424 39.5666 35.609 38.5C37.8757 34.9666 40.109 31.4 42.309 27.8C42.409 27.7 42.509 27.5 42.709 27.3Z" fill="#B31336"/>
<path d="M55.6091 23.4C54.2091 21.2 52.8091 19 51.5091 16.8C51.1757 16.3333 50.8424 15.8333 50.5091 15.3C50.4091 15.1 50.4091 15 50.5091 14.8C52.9091 11 55.3091 7.1 57.8091 3.3C59.2091 1.1 61.3091 0 63.9091 0C68.9091 0 73.9091 0 78.9091 0C79.3091 0 79.4091 0.1 79.4091 0.5C79.4091 3.16667 79.4091 5.8 79.4091 8.4C79.4091 8.9 79.2091 8.9 78.9091 8.9C74.7757 8.9 70.6758 8.9 66.6091 8.9C65.3091 8.9 64.3091 9.4 63.7091 10.5C61.1091 14.6333 58.5091 18.7667 55.9091 22.9C55.8091 23 55.7091 23.2 55.6091 23.4Z" fill="#B31336"/>
</svg>
