<svg width="65" height="60" viewBox="0 0 65 60" fill="none" xmlns="http://www.w3.org/2000/svg">
<path d="M10.3 57.4V48.8H6.59998L3.59998 47L2.30005 42.7V18.8L6.59998 15.8H22.6V5.40002L25.6 2.90002H60.2L63.1 5.40002V28.8L60.2 35H54.1V42.7L51.9 45L42.7 35V45L37.7 48.8H22.6L12.2 59.4L10.3 57.4Z" fill="white"/>
<path fill-rule="evenodd" clip-rule="evenodd" d="M12.2 59.4C11.8 59.4 11.3667 59.3 10.9 59.1C9.60002 58.6 8.80005 57.4 8.80005 56V50.5H8.5C3.8 50.6 0 46.8 0 42.1V21.9C0 17.2 3.8 13.4 8.5 13.4H20.4V8.5C20.4 3.8 24.2 0 28.9 0H56.1C60.8 0 64.6 3.8 64.6 8.5V28.6C64.6 33.3 60.8 37.1 56.1 37.1H55.8V42.5C55.8 43.9 55 45.2 53.7 45.7C53.2999 45.9 52.8667 46 52.4 46C51.5 46 50.6 45.6 49.9 45L44.2 39.3V42.1C44.2 46.8 40.4 50.6 35.7 50.5H22.6L14.7 58.4C14 59 13.2 59.4 12.2 59.4ZM8.5 16.9C5.8 16.9 3.5 19.1 3.5 21.9V42.1C3.5 44.9 5.8 47.1 8.5 47.1H10.5C11.5 47.1 12.3 47.9 12.3 48.8V56L20.6 47.6C21 47.3 21.4 47.1 21.9 47.1H35.7C38.5 47.1 40.7 44.8 40.7 42.1V21.9C40.7 19.1 38.5 16.9 35.7 16.9H8.5ZM28.9 3.5C26.1 3.5 23.8 5.7 23.8 8.5V13.4H35.6C40.3 13.4 44.2 17.2 44.2 21.9V34.4L52.3 42.5V35.4C52.3 34.4 53.1 33.6 54 33.6H56C58.8 33.7 61.1 31.4 61.1 28.7V8.5C61.1 5.7 58.8 3.5 56 3.5H28.9Z" fill="#FF7643"/>
</svg>
